<svg width="36" height="36" viewBox="0 0 36 36" fill="none" xmlns="http://www.w3.org/2000/svg">
  <path fillRule="evenodd" clipRule="evenodd" d="M18 36C8.05887 36 0 27.9411 0 18C0 8.05887 8.05887 0 18 0C27.9411 0 36 8.05887 36 18C36 27.9411 27.9411 36 18 36Z" fill="#0556F3"/>
  <mask id="mask0" mask-type="alpha" maskUnits="userSpaceOnUse" x="9" y="8" width="20" height="20">
    <path d="M28.3 8.35001H9V27.65H28.3V8.35001Z" fill="white"/>
  </mask>
  <g mask="url(#mask0)">
    <path d="M8.83171 8.06224L-0.92627 17.8202L20.711 39.4575L30.469 29.6995L8.83171 8.06224Z" fill="white"/>
    <path d="M18.3885 -1.50043L-0.986084 17.8741L8.7719 27.6321L28.1464 8.25755L18.3885 -1.50043Z" fill="#F9F7F7"/>
    <path d="M9.9326 -1.54521L-3.00732 11.3947L6.04355 20.4456L18.9835 7.50566L9.9326 -1.54521Z" fill="white"/>
  </g>
</svg>
