<svg width="20" height="23" viewBox="0 0 20 23" fill="none" xmlns="http://www.w3.org/2000/svg">
<path d="M19.1528 5.57688L19.2062 5.54125C19.0993 5.34527 18.939 5.1671 18.7786 5.07802L10.1732 0.125021C10.0307 0.0359383 9.83473 0.000305176 9.62093 0.000305176C9.40713 0.000305176 9.21115 0.0537548 9.06862 0.125021L0.51668 5.09584C0.213798 5.274 0 5.71942 0 6.05793V15.9817C0 16.1777 0.035633 16.3915 0.160349 16.5875L0.124716 16.6053C0.213798 16.7479 0.338514 16.8726 0.46323 16.9438L9.0508 21.9147C9.19334 22.0037 9.38932 22.0394 9.60312 22.0394C9.81691 22.0394 10.0129 21.9859 10.1554 21.9147L18.7074 16.9438C19.0103 16.7657 19.224 16.3203 19.224 15.9817V6.04011C19.2419 5.89758 19.224 5.73723 19.1528 5.57688ZM9.62093 15.376C11.2422 15.376 12.6676 14.4852 13.4159 13.1667L15.7142 14.5208C14.5027 16.6231 12.2221 18.0485 9.62093 18.0485C5.73693 18.0485 2.5834 14.8949 2.5834 11.0109C2.5834 7.12692 5.73693 3.97339 9.62093 3.97339C12.24 3.97339 14.5205 5.41653 15.732 7.5367L13.4159 8.87294C12.6676 7.5367 11.2422 6.64588 9.62093 6.64588C7.2157 6.64588 5.25588 8.60569 5.25588 11.0109C5.25588 13.4162 7.2157 15.376 9.62093 15.376Z" fill="white"/>
</svg>
