<svg width="36" height="37" viewBox="0 0 36 37" fill="none" xmlns="http://www.w3.org/2000/svg">
<path fill-rule="evenodd" clip-rule="evenodd" d="M18 36.5004C8.05887 36.5004 0 28.5058 0 18.6439C0 8.78203 8.05887 0.787415 18 0.787415C27.9411 0.787415 36 8.78203 36 18.6439C36 28.5058 27.9411 36.5004 18 36.5004Z" fill="#0556F3"/>
<path d="M27.9192 13.567L27.9748 13.5314C27.8636 13.3358 27.6968 13.1579 27.5301 13.069L18.5803 8.1248C18.4321 8.03588 18.2283 8.00031 18.0059 8.00031C17.7836 8.00031 17.5797 8.05366 17.4315 8.1248L8.53736 13.0868C8.22235 13.2647 8 13.7093 8 14.0472V23.9534C8 24.1491 8.03706 24.3625 8.16677 24.5581L8.12971 24.5759C8.22235 24.7182 8.35206 24.8427 8.48177 24.9138L17.413 29.8758C17.5612 29.9647 17.765 30.0003 17.9874 30.0003C18.2097 30.0003 18.4136 29.947 18.5618 29.8758L27.456 24.9138C27.771 24.736 27.9933 24.2913 27.9933 23.9534V14.0294C28.0118 13.8871 27.9933 13.7271 27.9192 13.567ZM21.3412 19.3471V18.6357H22.2677V17.7465H23.1942V18.6357H24.1207V19.3471H23.1942V20.2364H22.2677V19.3471H21.3412ZM21.9527 16.8572C21.1745 15.5233 19.6921 14.6341 18.0059 14.6341C15.5044 14.6341 13.4662 16.5904 13.4662 18.9914C13.4662 21.3924 15.5044 23.3487 18.0059 23.3487C19.6921 23.3487 21.1745 22.4595 21.9527 21.1434L24.343 22.4951C23.083 24.5937 20.7112 26.0165 18.0059 26.0165C13.9665 26.0165 10.6868 22.8685 10.6868 18.9914C10.6868 15.1143 13.9665 11.9664 18.0059 11.9664C20.7298 11.9664 23.1015 13.4069 24.3615 15.5233L21.9527 16.8572ZM27.456 19.3471H26.5295V20.2364H25.7883V19.3471H24.6765V18.6357H25.7883V17.7465H26.5295V18.6357H27.456V19.3471Z" fill="white"/>
</svg>
