<svg width="22" height="22" viewBox="0 0 22 22" fill="none" xmlns="http://www.w3.org/2000/svg">
<path d="M8.24238 10.6407H13.4846C14.9439 10.6407 16.0934 9.40595 16.0934 7.94055V2.94298C16.0934 1.52055 14.9011 0.451929 13.4767 0.214617C12.5753 0.0644994 11.6438 -0.00381758 10.7464 0.000497178C9.84926 0.00463215 9.01831 0.0810393 8.26449 0.214617C6.04329 0.606721 5.66611 1.42832 5.66611 2.94298V4.88768H10.8798V5.6068H3.64824C2.12297 5.6068 0.787194 6.52513 0.369562 8.26955C-0.112432 10.2687 -0.133826 11.4911 0.369562 13.5785C0.742609 15.1322 1.63343 16.2139 3.15887 16.2139H4.94698V13.8681C4.94698 12.1356 6.46218 10.6407 8.24238 10.6407ZM7.91194 3.60943C7.36792 3.60943 6.92709 3.16375 6.92709 2.61254C6.92709 2.059 7.36774 1.60918 7.91194 1.60918C8.45398 1.60918 8.89696 2.059 8.89696 2.61254C8.89678 3.16375 8.4538 3.60943 7.91194 3.60943ZM21.3576 8.26955C20.9804 6.75075 20.2604 5.6068 18.733 5.6068H16.8126V7.94055C16.8126 9.74735 15.2316 11.18 13.4846 11.18H8.24238C6.80628 11.18 5.66611 12.4971 5.66611 13.9354V18.9333C5.66611 20.3554 6.87873 21.1921 8.26611 21.6002C9.92765 22.0886 11.5011 22.1769 13.4889 21.6002C14.8102 21.2174 16.0934 20.4476 16.0934 18.9333V16.933H10.8798V16.2139H18.733C20.2583 16.2139 20.8269 15.1755 21.3576 13.5783C21.9054 11.9342 21.8819 10.3784 21.3576 8.26955ZM13.8149 18.2665C14.3591 18.2665 14.7999 18.7122 14.7999 19.2637C14.7999 19.8167 14.3593 20.2667 13.8149 20.2667C13.2728 20.2667 12.83 19.8169 12.83 19.2637C12.83 18.7122 13.2728 18.2665 13.8149 18.2665Z" fill="white"/>
</svg>
