<svg width="36" height="36" viewBox="0 0 36 36" fill="none" xmlns="http://www.w3.org/2000/svg">
<path fill-rule="evenodd" clip-rule="evenodd" d="M18 36C8.05887 36 0 27.9411 0 18C0 8.05887 8.05887 0 18 0C27.9411 0 36 8.05887 36 18C36 27.9411 27.9411 36 18 36Z" fill="#0556F3"/>
<path d="M15.4 17.6H20.6C22.1 17.6 23.2 16.4 23.2 14.9V9.9C23.2 8.5 22 7.4 20.6 7.2C19.7 7.1 18.8 7 17.9 7C17 7 16.2 7.1 15.4 7.2C13.2 7.6 12.8 8.4 12.8 9.9V11.8H18V12.5H10.8C9.3 12.5 7.9 13.4 7.5 15.2C7 17.2 7 18.4 7.5 20.5C7.9 22.1 8.8 23.1 10.3 23.1H12.1V20.8C12.1 19.1 13.6 17.6 15.4 17.6ZM15 10.6C14.5 10.6 14 10.2 14 9.6C14 9 14.4 8.6 15 8.6C15.5 8.6 16 9 16 9.6C16 10.2 15.6 10.6 15 10.6ZM28.5 15.3C28.1 13.8 27.4 12.6 25.9 12.6H24V14.9C24 16.7 22.4 18.1 20.7 18.1H15.5C14.1 18.1 12.9 19.4 12.9 20.9V25.9C12.9 27.3 14.1 28.2 15.5 28.6C17.2 29.1 18.7 29.2 20.7 28.6C22 28.2 23.3 27.4 23.3 25.9V23.9H18V23.2H25.9C27.4 23.2 28 22.2 28.5 20.6C29 18.9 29 17.4 28.5 15.3ZM20.9 25.3C21.4 25.3 21.9 25.7 21.9 26.3C21.9 26.9 21.5 27.3 20.9 27.3C20.4 27.3 19.9 26.9 19.9 26.3C20 25.7 20.4 25.3 20.9 25.3Z" fill="white"/>
</svg>
