<svg width="84" height="29" viewBox="0 0 84 29" fill="none" xmlns="http://www.w3.org/2000/svg">
  <path d="M1.11902 11.475C1.11902 11.2641 1.23121 11.0692 1.41354 10.9632L5.28285 8.71508C5.48013 8.60045 5.72744 8.74279 5.72744 8.97095V25.2519C5.72744 25.365 5.63574 25.4567 5.52262 25.4567H1.32384C1.21072 25.4567 1.11902 25.365 1.11902 25.2519V11.475Z" fill="url(#paint0_linear)"/>
  <path d="M1.11901 10.8052C1.11901 10.7321 1.158 10.6645 1.22132 10.6279L5.42011 8.20073C5.55665 8.1218 5.72743 8.22034 5.72743 8.37806L5.72743 16.7519C5.72743 16.9216 5.58988 17.0591 5.4202 17.0591H1.42624C1.25656 17.0591 1.11901 16.9216 1.11901 16.7519V10.8052Z" fill="url(#paint1_linear)"/>
  <path d="M12.7629 7.9525L1.53033 14.402C1.2759 14.5481 1.119 14.8191 1.119 15.1125V19.901L13.2737 12.8834C13.5272 12.7371 13.6833 12.4666 13.6833 12.1739V8.48537C13.6833 8.01301 13.1726 7.7173 12.7629 7.9525Z" fill="url(#paint2_linear)"/>
  <path fillRule="evenodd" clipRule="evenodd" d="M1.61418 19.6159C1.31939 19.7747 1.11903 20.0862 1.11903 20.4446C1.11903 20.4469 1.11904 20.4492 1.11906 20.4515L1.11902 20.4515L1.11902 19.335L1.61418 19.6159Z" fill="#6501E5"/>
  <path fillRule="evenodd" clipRule="evenodd" d="M13.2459 12.8998C13.2867 12.8024 13.3093 12.6955 13.3093 12.5833C13.3093 12.409 13.2549 12.2474 13.162 12.1146L13.6858 11.8181V12.1728C13.6858 12.4653 13.5299 12.7356 13.2767 12.882L13.2459 12.8998Z" fill="#9327FE"/>
  <path d="M13.169 12.1287C13.0286 11.6969 5.82553 6.85818 0.867717 3.5062C0.700444 3.3931 0.781451 3.13252 0.983367 3.13252L6.88813 3.13248C6.92968 3.13248 6.97024 3.14511 7.00444 3.16871L13.3321 7.53416C13.5538 7.68709 13.6862 7.93921 13.6862 8.20852L13.6862 11.8281L13.169 12.1287Z" fill="#9327FE"/>
  <path d="M16.6384 16.6005C16.4665 16.5485 16.2085 16.5138 15.9506 16.5138C15.2627 16.5138 14.1794 16.7911 13.7323 17.7617V16.6005H11.2044V25.2143H13.8182V21.4534C13.8182 19.7375 14.764 19.1136 15.813 19.1136C16.0709 19.1136 16.3461 19.1309 16.6384 19.2002V16.6005Z" fill="#0556F3"/>
  <path d="M22.0439 23.0479C21.0637 23.0479 20.1179 22.3373 20.1179 20.8987C20.1179 19.4429 21.0637 18.767 22.0439 18.767C23.0413 18.767 23.9699 19.4429 23.9699 20.8987C23.9699 22.3546 23.0413 23.0479 22.0439 23.0479ZM22.0439 16.3405C19.4989 16.3405 17.5041 18.2297 17.5041 20.8987C17.5041 23.5678 19.4989 25.4743 22.0439 25.4743C24.6061 25.4743 26.5837 23.5678 26.5837 20.8987C26.5837 18.2297 24.6061 16.3405 22.0439 16.3405Z" fill="#0556F3"/>
  <path d="M27.6644 25.6996C27.9051 27.2421 29.47 28.7673 31.929 28.7673C35.1275 28.7673 36.5032 26.6182 36.5032 24.1398V16.6005H34.0098V17.5191C33.769 17.0685 33.0296 16.4445 31.6367 16.4445C29.298 16.4445 27.6644 18.3857 27.6644 20.6561C27.6644 23.0479 29.3668 24.8504 31.6367 24.8504C32.8748 24.8504 33.6143 24.3477 33.9238 23.8798V24.2784C33.9238 25.8383 33.1156 26.4795 31.8087 26.4795C30.8285 26.4795 30.1406 25.8729 29.9687 25.041L27.6644 25.6996ZM32.1182 22.5626C31.0692 22.5626 30.2782 21.8347 30.2782 20.6561C30.2782 19.4776 31.138 18.7496 32.1182 18.7496C33.0984 18.7496 33.941 19.4776 33.941 20.6561C33.941 21.8347 33.1844 22.5626 32.1182 22.5626Z" fill="#0556F3"/>
  <path d="M44.1456 16.6005C43.9736 16.5485 43.7157 16.5138 43.4577 16.5138C42.7699 16.5138 41.6865 16.7911 41.2394 17.7617V16.6005H38.7116V25.2143H41.3254V21.4534C41.3254 19.7375 42.2712 19.1136 43.3201 19.1136C43.5781 19.1136 43.8532 19.1309 44.1456 19.2002V16.6005Z" fill="#0556F3"/>
  <path d="M45.2824 22.8399C45.2824 24.2091 46.3657 25.457 48.2401 25.457C49.3751 25.457 50.2005 24.9717 50.6476 24.2438C50.6476 24.833 50.7164 25.145 50.7336 25.2143H53.0895C53.0723 25.1277 52.9863 24.5557 52.9863 23.8798V19.6682C52.9863 17.9004 51.9717 16.3405 49.2031 16.3405C46.6925 16.3405 45.5575 17.9697 45.4544 19.2002L47.7242 19.6682C47.7758 19.0269 48.2745 18.403 49.1859 18.403C50.0113 18.403 50.4412 18.8363 50.4412 19.3389C50.4412 19.6335 50.2865 19.8589 49.8222 19.9282L47.8102 20.2401C46.4001 20.4481 45.2824 21.3147 45.2824 22.8399ZM48.8764 23.5505C48.1542 23.5505 47.8618 23.1172 47.8618 22.6666C47.8618 22.06 48.2745 21.8 48.8248 21.7133L50.4412 21.4534V21.8347C50.4412 23.1692 49.6502 23.5505 48.8764 23.5505Z" fill="#0556F3"/>
  <path d="M57.7995 25.2143V20.2575C57.7995 19.4776 58.2981 18.767 59.2095 18.767C60.1553 18.767 60.5852 19.4082 60.5852 20.2228V25.2143H63.1647V20.2401C63.1647 19.4776 63.6633 18.767 64.5919 18.767C65.5205 18.767 65.9504 19.4082 65.9504 20.2228V25.2143H68.4783V19.6335C68.4783 17.2938 66.9306 16.3405 65.3142 16.3405C64.162 16.3405 63.3366 16.7218 62.666 17.6924C62.2361 16.8431 61.3591 16.3405 60.1381 16.3405C59.2095 16.3405 58.109 16.8258 57.6791 17.5884V16.6005H55.1856V25.2143H57.7995Z" fill="#0556F3"/>
  <path d="M83.9167 25.2143V22.9439H79.91L83.8479 18.767V16.6005H76.8491V18.8536H80.5118L76.7459 22.8919V25.2143H83.9167Z" fill="#0556F3"/>
  <path d="M73.843 25.1965H70.8376L71.7218 19.5494H70.8376V16.4022H74.7218V19.5494L73.843 25.1965Z" fill="#065AFF"/>
  <path d="M74.7218 10.716H70.8376V14.4397H74.7218V10.716Z" fill="#065AFF"/>
  <defs>
    <linearGradient id="paint0_linear" x1="3.42323" y1="23.6903" x2="3.42323" y2="15.9153" gradientUnits="userSpaceOnUse">
      <stop stopColor="#00A3FF"/>
      <stop offset="1" stopColor="#0597EA"/>
    </linearGradient>
    <linearGradient id="paint1_linear" x1="3.42321" y1="16.1653" x2="3.42321" y2="12.2309" gradientUnits="userSpaceOnUse">
      <stop stopColor="#00A3FF"/>
      <stop offset="1" stopColor="#0597EA"/>
    </linearGradient>
    <linearGradient id="paint2_linear" x1="5.084" y1="14.755" x2="14.5414" y2="9.4491" gradientUnits="userSpaceOnUse">
      <stop stopColor="#6501E5"/>
      <stop offset="1" stopColor="#5F01D8"/>
    </linearGradient>
  </defs>
</svg>
