<svg width="246" height="178" viewBox="0 0 246 178" fill="none" xmlns="http://www.w3.org/2000/svg">
<g opacity="0.2">
<mask id="path-1-inside-1" fill="white">
<path fill-rule="evenodd" clip-rule="evenodd" d="M20.5872 186.703C19.6094 176.145 26.8252 166.581 37.2329 164.64L50.3185 146.473C49.5161 144.991 48.9011 143.414 48.4879 141.778L35.8156 136.703C29.9627 143.376 20.4831 145.511 12.3423 141.989C4.20163 138.468 -0.745605 130.092 0.0920105 121.249C0.929626 112.407 7.3631 105.114 16.0203 103.189L26.2863 82.6779C19.0849 75.3288 18.4627 63.7624 24.8353 55.6818C31.2079 47.6003 42.5853 45.5262 51.3915 50.8406L62.8394 41.3211C61.973 39.0529 61.5197 36.6484 61.5005 34.2198C61.4821 25.8344 66.5679 18.2839 74.3378 15.1615C82.1078 12.0383 90.994 13.9737 96.7676 20.046L117.027 14.9738C119.453 6.17214 127.422 0.0557198 136.539 0.000378489C145.656 -0.0549628 153.699 5.96361 156.232 14.7348L183.306 20.1583C190.368 12.5308 202.024 11.4344 210.381 17.6126C218.737 23.7899 221.125 35.2688 215.93 44.2758L229.196 61.9714C238.703 63.6926 245.708 71.8455 245.991 81.5174C246.274 91.1893 239.756 99.7383 230.366 102.014L219.396 129.138C225.415 135.056 227.192 144.066 223.872 151.832C220.552 159.598 212.815 164.528 204.386 164.249C195.957 163.97 188.561 158.54 185.76 150.571H149.074C146.011 160.008 136.453 165.722 126.706 163.943L104.021 198.504C109.841 204.967 110.947 214.407 106.78 222.044C102.613 229.681 94.081 233.846 85.5079 232.428C76.9348 231.011 70.1922 224.322 68.6955 215.749L51.7615 202.192C48.5391 204.227 44.8099 205.313 41.0006 205.326C30.4135 205.333 21.5641 197.261 20.5872 186.703ZM20.485 116.346C17.0673 116.338 14.1701 118.862 13.7024 122.252C13.2339 125.642 15.3392 128.858 18.6296 129.781C21.92 130.703 25.3857 129.048 26.7431 125.907C26.7486 125.892 26.7521 125.877 26.7546 125.861C26.7564 125.85 26.7577 125.838 26.7588 125.826L26.7599 125.814V125.814C26.7628 125.781 26.7656 125.749 26.7783 125.717L26.8215 125.65C27.1395 124.868 27.3084 124.034 27.3188 123.189C27.314 119.412 24.2574 116.35 20.485 116.346ZM41.0039 61.59C44.243 61.5876 47.0385 63.8662 47.6944 67.0431C48.351 70.2208 46.687 73.4218 43.7113 74.7058C43.6809 74.7173 43.6501 74.72 43.6194 74.7227C43.588 74.7254 43.5567 74.7282 43.5263 74.7403L43.4679 74.7788C42.6847 75.0981 41.8495 75.2673 41.0039 75.2777C37.2298 75.2777 34.1708 72.2139 34.1708 68.4338C34.1708 64.6538 37.2298 61.59 41.0039 61.59ZM54.4977 83.775L67.1252 115.398L89.2611 97.6617C86.2582 95.096 84.0641 91.7121 82.943 87.9208L55.8687 82.4974C55.4791 82.9108 55.0568 83.2827 54.6307 83.6579L54.4977 83.775ZM69.2616 143.656C65.8799 144.123 62.6744 142.017 61.7543 138.725C60.8342 135.433 62.4822 131.966 65.6141 130.606C65.6438 130.595 65.6743 130.592 65.7048 130.589C65.7376 130.586 65.7703 130.582 65.8022 130.569L65.8607 130.531C66.6439 130.212 67.4791 130.042 68.3247 130.032C72.0972 130.035 75.1537 133.097 75.1577 136.876C75.1609 140.295 72.6425 143.189 69.2616 143.656ZM81.987 27.3661C78.2129 27.3661 75.1539 30.43 75.1539 34.21C75.1539 37.9901 78.2137 41.0539 81.987 41.0539C85.7603 41.0539 88.82 37.9901 88.82 34.21C88.816 30.4316 85.7594 27.3702 81.987 27.3661ZM102.355 32.7492L117.963 28.8408C119.39 32.0097 121.596 34.7647 124.374 36.85L99.3546 61.9084C92.3671 62.9872 86.4269 67.595 83.6362 74.1012L61.3809 69.6434C61.391 69.4664 61.4152 69.2934 61.4394 69.1204C61.471 68.8943 61.5027 68.6684 61.5027 68.4339C61.4834 66.0053 61.0294 63.6008 60.1629 61.3326L71.6117 51.813C74.7467 53.7131 78.3382 54.7261 82.0026 54.7453C93.3192 54.7333 102.49 45.5474 102.503 34.2129C102.503 33.9142 102.463 33.6266 102.423 33.3388V33.3386V33.3385C102.397 33.1434 102.37 32.9481 102.355 32.7492ZM95.6719 82.1208C95.6719 85.9009 98.7309 88.9647 102.505 88.9647C106.277 88.9607 109.335 85.8993 109.338 82.1208C109.338 78.3408 106.279 75.2769 102.505 75.2769C98.7309 75.2769 95.6719 78.3408 95.6719 82.1208ZM129.824 20.5243C129.824 16.7443 132.883 13.6805 136.657 13.6805C140.43 13.6845 143.487 16.7467 143.49 20.5243C143.49 24.3044 140.431 27.3682 136.657 27.3682C132.883 27.3682 129.824 24.3044 129.824 20.5243ZM135.317 45.2559L114.801 65.802C117.991 68.2153 120.405 71.5109 121.746 75.2822H137.931C139.545 70.7506 142.698 66.9321 146.84 64.4938L135.317 45.2559ZM155.524 28.5481L177.779 33.0059C177.769 33.1824 177.745 33.355 177.721 33.5277L177.721 33.5278C177.689 33.7539 177.657 33.98 177.657 34.2146C177.669 38.0661 178.77 41.8357 180.836 45.0848L159.393 58.8656L146.989 38.1591C150.786 35.9511 153.777 32.5825 155.524 28.5481ZM150.34 82.1208C150.34 85.9009 153.399 88.9647 157.173 88.9647C160.945 88.9607 164.003 85.8993 164.006 82.1208C164.006 78.3408 160.947 75.2769 157.173 75.2769C153.399 75.2769 150.34 78.3408 150.34 82.1208ZM191.324 34.21C191.324 30.43 194.383 27.3661 198.157 27.3661C201.929 27.3702 204.986 30.4316 204.99 34.21C204.99 37.9901 201.931 41.0539 198.157 41.0539C194.383 41.0539 191.324 37.9901 191.324 34.21ZM205.607 53.2987C201.444 55.0183 196.809 55.2148 192.516 53.8545L171.417 67.4131C173.663 69.6163 175.372 72.3088 176.41 75.2804H206.262C207.754 71.044 210.591 67.4131 214.338 64.9452L205.607 53.2987ZM232.337 82.1208C232.337 85.9009 229.278 88.9647 225.504 88.9647C221.73 88.9647 218.671 85.9009 218.671 82.1208C218.671 78.3408 221.73 75.2769 225.504 75.2769C229.276 75.2801 232.333 78.3424 232.337 82.1208ZM204.986 150.562C208.76 150.562 211.819 147.498 211.819 143.719C211.819 139.939 208.76 136.875 204.986 136.875C201.212 136.875 198.153 139.939 198.153 143.719C198.156 147.497 201.214 150.558 204.986 150.562ZM204.998 123.185C203.693 123.192 202.391 123.323 201.112 123.579L170.235 97.8063C173.044 95.4651 175.175 92.4118 176.405 88.9645H206.258C208.021 93.9084 211.609 97.9876 216.285 100.361L206.973 123.385C206.748 123.363 206.524 123.333 206.301 123.302L206.301 123.302L206.301 123.302L206.3 123.302L206.3 123.302L206.3 123.302L206.3 123.302L206.3 123.302L206.299 123.302C205.871 123.243 205.442 123.185 204.998 123.185ZM149.082 136.875H185.768C186.498 134.825 187.551 132.904 188.887 131.188L155.327 103.177L143.899 128.849C146.234 131.077 148.01 133.828 149.082 136.875ZM121.73 88.9645H137.916C138.988 92.0115 140.764 94.7617 143.099 96.9906L131.369 123.342C131.161 123.326 130.957 123.298 130.753 123.27C130.447 123.228 130.14 123.186 129.823 123.186C128.886 123.215 127.953 123.31 127.029 123.469L112.821 99.7529C116.963 97.3147 120.116 93.4961 121.73 88.9645ZM129.826 150.562C133.6 150.562 136.659 147.498 136.659 143.719C136.659 139.939 133.599 136.875 129.826 136.875C126.052 136.875 122.993 139.939 122.993 143.719C122.996 147.497 126.053 150.558 129.826 150.562ZM81.5729 121.337L100.656 106.045L114.868 129.774C113.232 131.506 111.909 133.511 110.958 135.698L87.891 131.077C86.7699 127.287 84.575 123.903 81.5729 121.337ZM88.8445 219.004C92.6186 219.004 95.6776 215.94 95.6776 212.16C95.6776 208.38 92.6186 205.316 88.8445 205.316C85.0704 205.316 82.0115 208.38 82.0115 212.16C82.0147 215.938 85.0721 219 88.8445 219.004ZM60.2754 191.484C61.0546 189.334 61.4654 187.069 61.4902 184.782C61.4782 177.778 57.8955 171.266 51.9906 167.514L60.4204 155.81C70.8225 160.178 82.7917 155.297 87.1896 144.894L110.257 149.514C111.113 152.431 112.609 155.118 114.635 157.382L91.9502 191.943C84.081 190.504 76.1236 193.972 71.8106 200.72L60.2754 191.484ZM54.8474 121.535L41.8091 88.8847C41.6844 88.8899 41.563 88.9074 41.4416 88.9249C41.2972 88.9457 41.1528 88.9666 41.0027 88.9666C40.1795 88.9345 39.3587 88.8511 38.5451 88.7179L30.2715 105.249C36.8587 108.808 40.9763 115.691 41.0027 123.188C41.0027 123.337 40.982 123.481 40.9613 123.625C40.9435 123.748 40.9258 123.871 40.921 123.998L50.1084 127.677C51.2831 125.347 52.8919 123.262 54.8474 121.535ZM47.8367 184.785C47.8367 188.565 44.7778 191.629 41.0037 191.629C37.2296 191.629 34.1707 188.565 34.1707 184.785C34.1707 181.005 37.2296 177.941 41.0037 177.941C44.7762 177.945 47.8327 181.007 47.8367 184.785Z"/>
</mask>
<path fill-rule="evenodd" clip-rule="evenodd" d="M20.5872 186.703C19.6094 176.145 26.8252 166.581 37.2329 164.64L50.3185 146.473C49.5161 144.991 48.9011 143.414 48.4879 141.778L35.8156 136.703C29.9627 143.376 20.4831 145.511 12.3423 141.989C4.20163 138.468 -0.745605 130.092 0.0920105 121.249C0.929626 112.407 7.3631 105.114 16.0203 103.189L26.2863 82.6779C19.0849 75.3288 18.4627 63.7624 24.8353 55.6818C31.2079 47.6003 42.5853 45.5262 51.3915 50.8406L62.8394 41.3211C61.973 39.0529 61.5197 36.6484 61.5005 34.2198C61.4821 25.8344 66.5679 18.2839 74.3378 15.1615C82.1078 12.0383 90.994 13.9737 96.7676 20.046L117.027 14.9738C119.453 6.17214 127.422 0.0557198 136.539 0.000378489C145.656 -0.0549628 153.699 5.96361 156.232 14.7348L183.306 20.1583C190.368 12.5308 202.024 11.4344 210.381 17.6126C218.737 23.7899 221.125 35.2688 215.93 44.2758L229.196 61.9714C238.703 63.6926 245.708 71.8455 245.991 81.5174C246.274 91.1893 239.756 99.7383 230.366 102.014L219.396 129.138C225.415 135.056 227.192 144.066 223.872 151.832C220.552 159.598 212.815 164.528 204.386 164.249C195.957 163.97 188.561 158.54 185.76 150.571H149.074C146.011 160.008 136.453 165.722 126.706 163.943L104.021 198.504C109.841 204.967 110.947 214.407 106.78 222.044C102.613 229.681 94.081 233.846 85.5079 232.428C76.9348 231.011 70.1922 224.322 68.6955 215.749L51.7615 202.192C48.5391 204.227 44.8099 205.313 41.0006 205.326C30.4135 205.333 21.5641 197.261 20.5872 186.703ZM20.485 116.346C17.0673 116.338 14.1701 118.862 13.7024 122.252C13.2339 125.642 15.3392 128.858 18.6296 129.781C21.92 130.703 25.3857 129.048 26.7431 125.907C26.7486 125.892 26.7521 125.877 26.7546 125.861C26.7564 125.85 26.7577 125.838 26.7588 125.826L26.7599 125.814V125.814C26.7628 125.781 26.7656 125.749 26.7783 125.717L26.8215 125.65C27.1395 124.868 27.3084 124.034 27.3188 123.189C27.314 119.412 24.2574 116.35 20.485 116.346ZM41.0039 61.59C44.243 61.5876 47.0385 63.8662 47.6944 67.0431C48.351 70.2208 46.687 73.4218 43.7113 74.7058C43.6809 74.7173 43.6501 74.72 43.6194 74.7227C43.588 74.7254 43.5567 74.7282 43.5263 74.7403L43.4679 74.7788C42.6847 75.0981 41.8495 75.2673 41.0039 75.2777C37.2298 75.2777 34.1708 72.2139 34.1708 68.4338C34.1708 64.6538 37.2298 61.59 41.0039 61.59ZM54.4977 83.775L67.1252 115.398L89.2611 97.6617C86.2582 95.096 84.0641 91.7121 82.943 87.9208L55.8687 82.4974C55.4791 82.9108 55.0568 83.2827 54.6307 83.6579L54.4977 83.775ZM69.2616 143.656C65.8799 144.123 62.6744 142.017 61.7543 138.725C60.8342 135.433 62.4822 131.966 65.6141 130.606C65.6438 130.595 65.6743 130.592 65.7048 130.589C65.7376 130.586 65.7703 130.582 65.8022 130.569L65.8607 130.531C66.6439 130.212 67.4791 130.042 68.3247 130.032C72.0972 130.035 75.1537 133.097 75.1577 136.876C75.1609 140.295 72.6425 143.189 69.2616 143.656ZM81.987 27.3661C78.2129 27.3661 75.1539 30.43 75.1539 34.21C75.1539 37.9901 78.2137 41.0539 81.987 41.0539C85.7603 41.0539 88.82 37.9901 88.82 34.21C88.816 30.4316 85.7594 27.3702 81.987 27.3661ZM102.355 32.7492L117.963 28.8408C119.39 32.0097 121.596 34.7647 124.374 36.85L99.3546 61.9084C92.3671 62.9872 86.4269 67.595 83.6362 74.1012L61.3809 69.6434C61.391 69.4664 61.4152 69.2934 61.4394 69.1204C61.471 68.8943 61.5027 68.6684 61.5027 68.4339C61.4834 66.0053 61.0294 63.6008 60.1629 61.3326L71.6117 51.813C74.7467 53.7131 78.3382 54.7261 82.0026 54.7453C93.3192 54.7333 102.49 45.5474 102.503 34.2129C102.503 33.9142 102.463 33.6266 102.423 33.3388V33.3386V33.3385C102.397 33.1434 102.37 32.9481 102.355 32.7492ZM95.6719 82.1208C95.6719 85.9009 98.7309 88.9647 102.505 88.9647C106.277 88.9607 109.335 85.8993 109.338 82.1208C109.338 78.3408 106.279 75.2769 102.505 75.2769C98.7309 75.2769 95.6719 78.3408 95.6719 82.1208ZM129.824 20.5243C129.824 16.7443 132.883 13.6805 136.657 13.6805C140.43 13.6845 143.487 16.7467 143.49 20.5243C143.49 24.3044 140.431 27.3682 136.657 27.3682C132.883 27.3682 129.824 24.3044 129.824 20.5243ZM135.317 45.2559L114.801 65.802C117.991 68.2153 120.405 71.5109 121.746 75.2822H137.931C139.545 70.7506 142.698 66.9321 146.84 64.4938L135.317 45.2559ZM155.524 28.5481L177.779 33.0059C177.769 33.1824 177.745 33.355 177.721 33.5277L177.721 33.5278C177.689 33.7539 177.657 33.98 177.657 34.2146C177.669 38.0661 178.77 41.8357 180.836 45.0848L159.393 58.8656L146.989 38.1591C150.786 35.9511 153.777 32.5825 155.524 28.5481ZM150.34 82.1208C150.34 85.9009 153.399 88.9647 157.173 88.9647C160.945 88.9607 164.003 85.8993 164.006 82.1208C164.006 78.3408 160.947 75.2769 157.173 75.2769C153.399 75.2769 150.34 78.3408 150.34 82.1208ZM191.324 34.21C191.324 30.43 194.383 27.3661 198.157 27.3661C201.929 27.3702 204.986 30.4316 204.99 34.21C204.99 37.9901 201.931 41.0539 198.157 41.0539C194.383 41.0539 191.324 37.9901 191.324 34.21ZM205.607 53.2987C201.444 55.0183 196.809 55.2148 192.516 53.8545L171.417 67.4131C173.663 69.6163 175.372 72.3088 176.41 75.2804H206.262C207.754 71.044 210.591 67.4131 214.338 64.9452L205.607 53.2987ZM232.337 82.1208C232.337 85.9009 229.278 88.9647 225.504 88.9647C221.73 88.9647 218.671 85.9009 218.671 82.1208C218.671 78.3408 221.73 75.2769 225.504 75.2769C229.276 75.2801 232.333 78.3424 232.337 82.1208ZM204.986 150.562C208.76 150.562 211.819 147.498 211.819 143.719C211.819 139.939 208.76 136.875 204.986 136.875C201.212 136.875 198.153 139.939 198.153 143.719C198.156 147.497 201.214 150.558 204.986 150.562ZM204.998 123.185C203.693 123.192 202.391 123.323 201.112 123.579L170.235 97.8063C173.044 95.4651 175.175 92.4118 176.405 88.9645H206.258C208.021 93.9084 211.609 97.9876 216.285 100.361L206.973 123.385C206.748 123.363 206.524 123.333 206.301 123.302L206.301 123.302L206.301 123.302L206.3 123.302L206.3 123.302L206.3 123.302L206.3 123.302L206.3 123.302L206.299 123.302C205.871 123.243 205.442 123.185 204.998 123.185ZM149.082 136.875H185.768C186.498 134.825 187.551 132.904 188.887 131.188L155.327 103.177L143.899 128.849C146.234 131.077 148.01 133.828 149.082 136.875ZM121.73 88.9645H137.916C138.988 92.0115 140.764 94.7617 143.099 96.9906L131.369 123.342C131.161 123.326 130.957 123.298 130.753 123.27C130.447 123.228 130.14 123.186 129.823 123.186C128.886 123.215 127.953 123.31 127.029 123.469L112.821 99.7529C116.963 97.3147 120.116 93.4961 121.73 88.9645ZM129.826 150.562C133.6 150.562 136.659 147.498 136.659 143.719C136.659 139.939 133.599 136.875 129.826 136.875C126.052 136.875 122.993 139.939 122.993 143.719C122.996 147.497 126.053 150.558 129.826 150.562ZM81.5729 121.337L100.656 106.045L114.868 129.774C113.232 131.506 111.909 133.511 110.958 135.698L87.891 131.077C86.7699 127.287 84.575 123.903 81.5729 121.337ZM88.8445 219.004C92.6186 219.004 95.6776 215.94 95.6776 212.16C95.6776 208.38 92.6186 205.316 88.8445 205.316C85.0704 205.316 82.0115 208.38 82.0115 212.16C82.0147 215.938 85.0721 219 88.8445 219.004ZM60.2754 191.484C61.0546 189.334 61.4654 187.069 61.4902 184.782C61.4782 177.778 57.8955 171.266 51.9906 167.514L60.4204 155.81C70.8225 160.178 82.7917 155.297 87.1896 144.894L110.257 149.514C111.113 152.431 112.609 155.118 114.635 157.382L91.9502 191.943C84.081 190.504 76.1236 193.972 71.8106 200.72L60.2754 191.484ZM54.8474 121.535L41.8091 88.8847C41.6844 88.8899 41.563 88.9074 41.4416 88.9249C41.2972 88.9457 41.1528 88.9666 41.0027 88.9666C40.1795 88.9345 39.3587 88.8511 38.5451 88.7179L30.2715 105.249C36.8587 108.808 40.9763 115.691 41.0027 123.188C41.0027 123.337 40.982 123.481 40.9613 123.625C40.9435 123.748 40.9258 123.871 40.921 123.998L50.1084 127.677C51.2831 125.347 52.8919 123.262 54.8474 121.535ZM47.8367 184.785C47.8367 188.565 44.7778 191.629 41.0037 191.629C37.2296 191.629 34.1707 188.565 34.1707 184.785C34.1707 181.005 37.2296 177.941 41.0037 177.941C44.7762 177.945 47.8327 181.007 47.8367 184.785Z" fill="url(#paint0_linear)"/>
<path d="M37.2329 164.64L41.5488 167.749L40.3032 169.478L38.2081 169.869L37.2329 164.64ZM20.5872 186.703L25.8834 186.212L25.8835 186.213L20.5872 186.703ZM50.3185 146.473L54.996 143.941L56.5842 146.874L54.6344 149.582L50.3185 146.473ZM48.4879 141.778L50.4654 136.841L52.981 137.848L53.6447 140.476L48.4879 141.778ZM35.8156 136.703L31.8168 133.196L34.2988 130.366L37.7931 131.765L35.8156 136.703ZM12.3423 141.989L10.2305 146.871L12.3423 141.989ZM16.0203 103.189L20.7767 105.569L19.6444 107.832L17.1748 108.381L16.0203 103.189ZM26.2863 82.6779L30.0853 78.9553L32.741 81.6654L31.0427 85.0586L26.2863 82.6779ZM24.8353 55.6818L29.0119 58.9752L29.0117 58.9754L24.8353 55.6818ZM51.3915 50.8406L54.7923 54.9303L51.8829 57.3496L48.6433 55.3945L51.3915 50.8406ZM62.8394 41.3211L67.8082 39.4231L69.1661 42.9778L66.2402 45.4108L62.8394 41.3211ZM61.5005 34.2198L56.1818 34.2618L56.1817 34.2466L56.1816 34.2314L61.5005 34.2198ZM74.3378 15.1615L76.3215 20.0967L76.3211 20.0968L74.3378 15.1615ZM96.7676 20.046L98.0594 25.2056L95.0504 25.959L92.913 23.711L96.7676 20.046ZM117.027 14.9738L122.154 16.3874L121.329 19.3796L118.318 20.1335L117.027 14.9738ZM136.539 0.000378489L136.507 -5.31844L136.539 0.000378489ZM156.232 14.7348L155.187 19.9501L152.018 19.3154L151.122 16.2105L156.232 14.7348ZM183.306 20.1583L187.209 23.7719L185.184 25.959L182.261 25.3736L183.306 20.1583ZM210.381 17.6126L207.219 21.8896L207.218 21.8894L210.381 17.6126ZM215.93 44.2758L211.674 47.4664L209.569 44.6583L211.323 41.6182L215.93 44.2758ZM229.196 61.9714L228.249 67.2053L226.194 66.8332L224.941 65.162L229.196 61.9714ZM245.991 81.5174L240.675 81.6727L245.991 81.5174ZM230.366 102.014L225.435 100.02L226.459 97.4876L229.114 96.8444L230.366 102.014ZM219.396 129.138L215.667 132.931L213.133 130.439L214.466 127.144L219.396 129.138ZM223.872 151.832L228.763 153.923L228.763 153.923L223.872 151.832ZM185.76 150.571V145.252H189.528L190.778 148.807L185.76 150.571ZM149.074 150.571L144.015 148.929L145.208 145.252H149.074V150.571ZM126.706 163.943L122.26 161.024L124.194 158.078L127.661 158.711L126.706 163.943ZM104.021 198.504L100.069 202.063L97.3234 199.015L99.5745 195.585L104.021 198.504ZM106.78 222.044L111.449 224.592L111.449 224.592L106.78 222.044ZM85.5079 232.428L86.3754 227.181L85.5079 232.428ZM68.6955 215.749L72.0197 211.597L73.5894 212.853L73.9352 214.834L68.6955 215.749ZM51.7615 202.192L48.9216 197.695L52.1266 195.671L55.0856 198.04L51.7615 202.192ZM41.0006 205.326L41.0185 210.644L41.0114 210.644L41.0042 210.644L41.0006 205.326ZM13.7024 122.252L18.9714 122.979L18.9713 122.98L13.7024 122.252ZM20.485 116.346L20.4793 121.664L20.4738 121.664L20.485 116.346ZM18.6296 129.781L17.194 134.902H17.1939L18.6296 129.781ZM26.7431 125.907L31.7287 127.76L31.6806 127.889L31.6258 128.016L26.7431 125.907ZM26.7546 125.861L32.0061 126.705L32.0061 126.705L26.7546 125.861ZM26.7588 125.826L32.0563 126.303L32.0554 126.313L32.0546 126.322L26.7588 125.826ZM26.7599 125.814H32.0788V126.053L32.0574 126.291L26.7599 125.814ZM26.7599 125.814H21.441V125.581L21.4613 125.35L26.7599 125.814ZM26.7783 125.717L21.8343 123.755L22.0295 123.263L22.3179 122.819L26.7783 125.717ZM26.8215 125.65L31.7488 127.653L31.558 128.123L31.2819 128.548L26.8215 125.65ZM27.3188 123.189L32.6377 123.183L32.6378 123.219L32.6373 123.255L27.3188 123.189ZM47.6944 67.0431L42.4855 68.1195L42.4853 68.1184L47.6944 67.0431ZM41.0039 61.59L41.0078 66.9089H41.0039V61.59ZM43.7113 74.7058L45.8187 79.5895L45.7047 79.6387L45.5885 79.6825L43.7113 74.7058ZM43.6194 74.7227L43.1564 69.424L43.1576 69.4239L43.6194 74.7227ZM43.5263 74.7403L40.6009 70.2982L41.0495 70.0027L41.5482 69.803L43.5263 74.7403ZM43.4679 74.7788L46.3934 79.221L45.9581 79.5076L45.4755 79.7043L43.4679 74.7788ZM41.0039 75.2777L41.0694 80.5962L41.0367 80.5966H41.0039V75.2777ZM67.1252 115.398L70.4511 119.549L64.8481 124.038L62.1855 117.371L67.1252 115.398ZM54.4977 83.775L49.5581 85.7475L48.1671 82.2641L50.9813 79.7843L54.4977 83.775ZM89.2611 97.6617L92.7163 93.6179L97.6032 97.7933L92.587 101.813L89.2611 97.6617ZM82.943 87.9208L83.9877 82.7055L87.1337 83.3357L88.0436 86.4126L82.943 87.9208ZM55.8687 82.4974L51.9975 78.8498L54.0207 76.7026L56.9134 77.2821L55.8687 82.4974ZM54.6307 83.6579L51.1143 79.6671L51.1156 79.666L54.6307 83.6579ZM61.7543 138.725L56.6318 140.157L56.6317 140.157L61.7543 138.725ZM69.2616 143.656L69.989 148.925L69.9889 148.925L69.2616 143.656ZM65.6141 130.606L63.4951 125.727L63.6429 125.663L63.7943 125.608L65.6141 130.606ZM65.7048 130.589L66.2573 135.879L66.255 135.879L65.7048 130.589ZM65.8022 130.569L68.7277 135.011L68.2848 135.303L67.7931 135.501L65.8022 130.569ZM65.8607 130.531L62.9352 126.089L63.3705 125.802L63.8531 125.605L65.8607 130.531ZM68.3247 130.032L68.2591 124.713L68.2942 124.713L68.3292 124.713L68.3247 130.032ZM75.1577 136.876L80.4766 136.87L80.4767 136.871L75.1577 136.876ZM81.987 27.3661V22.0472L81.9926 22.0472L81.987 27.3661ZM88.82 34.21L94.1389 34.2044V34.21H88.82ZM117.963 28.8408L116.671 23.6812L120.986 22.6006L122.813 26.6568L117.963 28.8408ZM102.355 32.7492L97.0504 33.1373L96.724 28.6761L101.063 27.5895L102.355 32.7492ZM124.374 36.85L127.567 32.5963L132.466 36.2736L128.138 40.6082L124.374 36.85ZM99.3546 61.9084L103.119 65.6666L101.888 66.8993L100.166 67.1651L99.3546 61.9084ZM83.6362 74.1012L88.5244 76.1979L86.8232 80.1641L82.5915 79.3165L83.6362 74.1012ZM61.3809 69.6434L60.3363 74.8587L55.8082 73.9517L56.0706 69.3412L61.3809 69.6434ZM61.4394 69.1204L66.707 69.8574V69.8574L61.4394 69.1204ZM61.5027 68.4339L66.8214 68.3918L66.8216 68.4128V68.4339H61.5027ZM60.1629 61.3326L55.1942 63.2306L53.8363 59.6757L56.7623 57.2428L60.1629 61.3326ZM71.6117 51.813L68.211 47.7232L71.1262 45.2993L74.3685 47.2643L71.6117 51.813ZM82.0026 54.7453L82.0082 60.0643L81.9914 60.0643L81.9746 60.0642L82.0026 54.7453ZM102.503 34.2129H107.821L107.821 34.2185L102.503 34.2129ZM102.423 33.3388L97.154 34.0633L97.1044 33.7027V33.3388H102.423ZM102.423 33.3385L107.693 32.6142L107.742 32.9747V33.3385H102.423ZM102.505 88.9647L102.511 94.2836H102.505V88.9647ZM109.338 82.1208H114.657V82.1253L109.338 82.1208ZM136.657 13.6805V8.36153L136.663 8.36154L136.657 13.6805ZM143.49 20.5243L148.809 20.5198V20.5243H143.49ZM114.801 65.802L111.592 70.0435L106.726 66.3616L111.038 62.0437L114.801 65.802ZM135.317 45.2559L131.554 41.4977L136.375 36.6695L139.88 42.5229L135.317 45.2559ZM121.746 75.2822V80.6011H117.991L116.734 77.0636L121.746 75.2822ZM137.931 75.2822L142.942 77.0664L141.683 80.6011H137.931V75.2822ZM146.84 64.4938L151.403 61.7608L154.157 66.3585L149.538 69.0774L146.84 64.4938ZM177.779 33.0059L178.824 27.7906L183.352 28.6977L183.089 33.3086L177.779 33.0059ZM155.524 28.5481L150.643 26.435L152.351 22.4881L156.568 23.3328L155.524 28.5481ZM177.721 33.5277L182.988 34.265L182.949 34.5442L182.881 34.8178L177.721 33.5277ZM177.721 33.5278L172.453 32.7903L172.492 32.5112L172.561 32.2378L177.721 33.5278ZM177.657 34.2146L172.338 34.2301L172.338 34.2224V34.2146H177.657ZM180.836 45.0848L185.325 42.2308L188.165 46.6976L183.712 49.5594L180.836 45.0848ZM159.393 58.8656L162.269 63.3402L157.651 66.3078L154.83 61.5989L159.393 58.8656ZM146.989 38.1591L142.426 40.8925L139.657 36.2702L144.315 33.5613L146.989 38.1591ZM157.173 88.9647L157.178 94.2836H157.173V88.9647ZM164.006 82.1208H169.325L169.325 82.1253L164.006 82.1208ZM198.157 27.3661V22.0472L198.162 22.0472L198.157 27.3661ZM204.99 34.21L210.309 34.2055V34.21H204.99ZM192.516 53.8545L189.64 49.3799L191.741 48.0297L194.122 48.7839L192.516 53.8545ZM205.607 53.2987L203.577 48.3826L207.389 46.808L209.863 50.1083L205.607 53.2987ZM171.417 67.4131L167.692 71.2096L162.935 66.5417L168.542 62.9385L171.417 67.4131ZM176.41 75.2804V80.5993H172.635L171.389 77.0353L176.41 75.2804ZM206.262 75.2804L211.279 77.0471L210.029 80.5993H206.262V75.2804ZM214.338 64.9452L218.594 61.7548L221.985 66.2782L217.264 69.3875L214.338 64.9452ZM232.337 82.1208L237.656 82.1152V82.1208H232.337ZM225.504 75.2769V69.958L225.508 69.958L225.504 75.2769ZM204.986 150.562V155.881L204.981 155.881L204.986 150.562ZM198.153 143.719L192.834 143.723V143.719H198.153ZM201.112 123.579L202.151 128.795L199.657 129.292L197.703 127.662L201.112 123.579ZM204.998 123.185L204.968 117.866L204.983 117.866H204.998V123.185ZM170.235 97.8063L166.826 101.89L161.93 97.8033L166.829 93.7204L170.235 97.8063ZM176.405 88.9645L171.396 87.176L172.657 83.6456H176.405V88.9645ZM206.258 88.9645V83.6456H210.008L211.267 87.1777L206.258 88.9645ZM216.285 100.361L218.692 95.6179L223.047 97.8281L221.216 102.355L216.285 100.361ZM206.973 123.385L211.904 125.379L210.412 129.068L206.452 128.679L206.973 123.385ZM206.301 123.302L206.858 118.012L206.94 118.021L207.021 118.032L206.301 123.302ZM206.3 123.302L205.743 128.592L205.645 128.581L205.547 128.567L206.3 123.302ZM206.299 123.302L207.019 118.032L207.035 118.034L207.052 118.036L206.299 123.302ZM185.768 136.875L190.78 138.658L189.521 142.194H185.768V136.875ZM149.082 136.875V142.194H145.315L144.065 138.64L149.082 136.875ZM188.887 131.188L192.295 127.105L196.241 130.398L193.084 134.455L188.887 131.188ZM155.327 103.177L150.468 101.014L153.331 94.583L158.735 99.0939L155.327 103.177ZM143.899 128.849L140.227 132.697L137.516 130.11L139.04 126.686L143.899 128.849ZM137.916 88.9645V83.6456H141.683L142.933 87.1989L137.916 88.9645ZM121.73 88.9645L116.719 87.1804L117.978 83.6456H121.73V88.9645ZM143.099 96.9906L146.772 93.1431L149.483 95.7305L147.959 99.1538L143.099 96.9906ZM131.369 123.342L136.228 125.505L134.704 128.928L130.968 128.646L131.369 123.342ZM130.753 123.27L130.027 128.539L130.027 128.539L130.753 123.27ZM129.823 123.186L129.654 117.869L129.738 117.867H129.823V123.186ZM127.029 123.469L127.929 128.711L124.338 129.328L122.466 126.202L127.029 123.469ZM112.821 99.7529L108.258 102.486L105.504 97.8885L110.123 95.1693L112.821 99.7529ZM129.826 150.562V155.881L129.82 155.881L129.826 150.562ZM122.993 143.719L117.674 143.723V143.719H122.993ZM100.656 106.045L97.3303 101.895L102.087 98.0831L105.219 103.312L100.656 106.045ZM81.5729 121.337L78.1166 125.379L73.2323 121.204L78.2469 117.186L81.5729 121.337ZM114.868 129.774L119.431 127.041L121.502 130.498L118.735 133.427L114.868 129.774ZM110.958 135.698L115.836 137.818L114.125 141.757L109.914 140.913L110.958 135.698ZM87.891 131.077L86.8463 136.293L83.7005 135.663L82.7905 132.586L87.891 131.077ZM88.8445 219.004V224.323H88.84L88.8445 219.004ZM82.0115 212.16L76.6926 212.164V212.16H82.0115ZM61.4902 184.782L66.8091 184.773L66.8092 184.806L66.8088 184.84L61.4902 184.782ZM60.2754 191.484L56.9511 195.636L53.9762 193.254L55.2749 189.671L60.2754 191.484ZM51.9906 167.514L49.138 172.003L44.3797 168.98L47.6747 164.405L51.9906 167.514ZM60.4204 155.81L56.1045 152.702L58.5778 149.268L62.4796 150.906L60.4204 155.81ZM87.1896 144.894L82.2904 142.823L83.9799 138.826L88.2343 139.678L87.1896 144.894ZM110.257 149.514L111.301 144.299L114.455 144.931L115.36 148.016L110.257 149.514ZM114.635 157.382L118.598 153.833L121.327 156.881L119.082 160.3L114.635 157.382ZM91.9502 191.943L96.3968 194.861L94.462 197.809L90.9935 197.175L91.9502 191.943ZM71.8106 200.72L76.2923 203.584L73.1054 208.57L68.4863 204.872L71.8106 200.72ZM41.8091 88.8847L41.5906 83.5703L45.3524 83.4156L46.7487 86.9122L41.8091 88.8847ZM54.8474 121.535L59.787 119.563L61.1765 123.042L58.3681 125.522L54.8474 121.535ZM41.4416 88.9249L42.201 94.1893L42.201 94.1893L41.4416 88.9249ZM41.0027 88.9666V94.2855H40.8991L40.7956 94.2814L41.0027 88.9666ZM38.5451 88.7179L33.7887 86.3374L35.5408 82.8366L39.4041 83.4688L38.5451 88.7179ZM30.2715 105.249L27.7429 109.928L23.208 107.478L25.515 102.868L30.2715 105.249ZM41.0027 123.188L46.3216 123.169L46.3216 123.178V123.188H41.0027ZM40.9613 123.625L46.2259 124.383L46.2258 124.384L40.9613 123.625ZM40.921 123.998L38.9437 128.935L35.4644 127.542L35.6059 123.797L40.921 123.998ZM50.1084 127.677L54.8578 130.071L52.6609 134.428L48.1311 132.614L50.1084 127.677ZM47.8367 184.785L53.1557 184.78V184.785H47.8367ZM41.0037 177.941V172.622H41.0082L41.0037 177.941ZM38.2081 169.869C30.5084 171.305 25.1585 178.385 25.8834 186.212L15.2909 187.193C14.0603 173.906 23.142 161.857 36.2578 159.411L38.2081 169.869ZM54.6344 149.582L41.5488 167.749L32.917 161.531L46.0026 143.364L54.6344 149.582ZM53.6447 140.476C53.9498 141.683 54.4038 142.847 54.996 143.941L45.641 149.005C44.6284 147.135 43.8524 145.145 43.331 143.081L53.6447 140.476ZM37.7931 131.765L50.4654 136.841L46.5103 146.716L33.838 141.641L37.7931 131.765ZM14.4542 137.108C20.4734 139.712 27.4849 138.135 31.8168 133.196L39.8143 140.21C32.4404 148.618 20.4927 151.311 10.2305 146.871L14.4542 137.108ZM5.38722 121.751C4.76656 128.303 8.43297 134.503 14.4542 137.108L10.2305 146.871C-0.0297089 142.432 -6.25777 131.88 -5.2032 120.748L5.38722 121.751ZM17.1748 108.381C10.7725 109.804 6.00774 115.2 5.38722 121.751L-5.2032 120.748C-4.14848 109.613 3.95369 100.423 14.8659 97.9966L17.1748 108.381ZM31.0427 85.0586L20.7767 105.569L11.2639 100.808L21.5299 80.2973L31.0427 85.0586ZM29.0117 58.9754C24.2957 64.9555 24.7567 73.5173 30.0853 78.9553L22.4872 86.4006C13.4131 77.1402 12.6296 62.5694 20.6588 52.3881L29.0117 58.9754ZM48.6433 55.3945C42.1353 51.4671 33.7256 52.9975 29.0119 58.9752L20.6587 52.3883C28.6902 42.2031 43.0354 39.5854 54.1397 46.2867L48.6433 55.3945ZM66.2402 45.4108L54.7923 54.9303L47.9907 46.7509L59.4386 37.2314L66.2402 45.4108ZM66.8193 34.1777C66.8335 35.9721 67.1683 37.7481 67.8082 39.4231L57.8707 43.2191C56.7776 40.3577 56.206 37.3246 56.1818 34.2618L66.8193 34.1777ZM76.3211 20.0968C70.5741 22.4063 66.8058 27.9947 66.8194 34.2081L56.1816 34.2314C56.1584 23.674 62.5616 14.1615 72.3546 10.2262L76.3211 20.0968ZM92.913 23.711C88.6401 19.2171 82.0672 17.7871 76.3215 20.0967L72.3541 10.2263C82.1483 6.2895 93.3479 8.73026 100.622 16.3809L92.913 23.711ZM118.318 20.1335L98.0594 25.2056L95.4758 14.8863L115.735 9.81416L118.318 20.1335ZM136.571 5.3192C129.841 5.36005 123.949 9.87599 122.154 16.3874L111.899 13.5603C114.957 2.46829 125.003 -5.24861 136.507 -5.31844L136.571 5.3192ZM151.122 16.2105C149.248 9.72209 143.302 5.27834 136.571 5.3192L136.507 -5.31844C148.01 -5.38827 158.15 2.20512 161.342 13.2592L151.122 16.2105ZM182.261 25.3736L155.187 19.9501L157.277 9.5195L184.351 14.9429L182.261 25.3736ZM207.218 21.8894C201.043 17.3239 192.43 18.1326 187.209 23.7719L179.403 16.5447C188.306 6.92895 203.005 5.54489 213.543 13.3357L207.218 21.8894ZM211.323 41.6182C215.168 34.9515 213.397 26.4574 207.219 21.8896L213.542 13.3355C224.076 21.1224 227.083 35.5862 220.537 46.9335L211.323 41.6182ZM224.941 65.162L211.674 47.4664L220.186 41.0853L233.452 58.7809L224.941 65.162ZM240.675 81.6727C240.465 74.5077 235.277 68.4777 228.249 67.2053L230.144 56.7376C242.13 58.9076 250.952 69.1832 251.308 81.362L240.675 81.6727ZM229.114 96.8444C236.056 95.1621 240.884 88.8377 240.675 81.6727L251.308 81.362C251.664 93.5408 243.456 104.314 231.619 107.183L229.114 96.8444ZM214.466 127.144L225.435 100.02L235.297 104.008L224.327 131.132L214.466 127.144ZM218.981 149.741C221.441 143.987 220.123 137.312 215.667 132.931L223.126 125.345C230.707 132.799 232.943 144.145 228.763 153.923L218.981 149.741ZM204.562 158.933C210.794 159.139 216.522 155.494 218.981 149.741L228.763 153.923C224.582 163.702 214.835 169.916 204.21 169.565L204.562 158.933ZM190.778 148.807C192.853 154.71 198.328 158.726 204.562 158.933L204.21 169.565C193.585 169.213 184.269 162.369 180.742 152.335L190.778 148.807ZM149.074 145.252H185.76V155.89H149.074V145.252ZM127.661 158.711C134.781 160.01 141.772 155.837 144.015 148.929L154.133 152.213C150.249 164.179 138.124 171.434 125.751 169.176L127.661 158.711ZM99.5745 195.585L122.26 161.024L131.153 166.862L108.468 201.423L99.5745 195.585ZM102.111 219.497C105.197 213.84 104.377 206.848 100.069 202.063L107.974 194.945C115.305 203.086 116.697 214.975 111.449 224.592L102.111 219.497ZM86.3754 227.181C92.713 228.228 99.0254 225.15 102.111 219.496L111.449 224.592C106.2 234.211 95.449 239.463 84.6404 237.676L86.3754 227.181ZM73.9352 214.834C75.044 221.185 80.0368 226.133 86.3754 227.181L84.6404 237.676C73.8327 235.889 65.3404 227.459 63.4559 216.664L73.9352 214.834ZM55.0856 198.04L72.0197 211.597L65.3714 219.901L48.4373 206.344L55.0856 198.04ZM40.9827 200.007C43.7923 199.997 46.5436 199.196 48.9216 197.695L54.6014 206.689C50.5346 209.257 45.8275 210.628 41.0185 210.644L40.9827 200.007ZM25.8835 186.213C26.6077 194.039 33.1648 200.012 40.997 200.007L41.0042 210.644C27.6622 210.654 16.5206 200.483 15.2909 187.193L25.8835 186.213ZM8.43338 121.525C9.26379 115.505 14.4113 111.014 20.4962 111.027L20.4738 121.664C19.7233 121.663 19.0763 122.218 18.9714 122.979L8.43338 121.525ZM17.1939 134.902C11.3382 133.261 7.60188 127.543 8.43355 121.524L18.9713 122.98C18.866 123.742 19.3402 124.456 20.0652 124.659L17.1939 134.902ZM31.6258 128.016C29.215 133.596 23.0529 136.544 17.194 134.902L20.0652 124.659C20.787 124.861 21.5565 124.501 21.8604 123.797L31.6258 128.016ZM32.0061 126.705C31.9656 126.957 31.8886 127.33 31.7287 127.76L21.7574 124.054C21.6086 124.454 21.5386 124.796 21.503 125.017L32.0061 126.705ZM32.0546 126.322C32.0502 126.369 32.0361 126.519 32.0061 126.705L21.503 125.018C21.4768 125.181 21.4652 125.307 21.463 125.331L32.0546 126.322ZM32.0574 126.291L32.0563 126.303L21.4613 125.349L21.4624 125.337L32.0574 126.291ZM32.0788 125.814V125.814H21.441V125.814H32.0788ZM31.7223 127.678C31.8951 127.243 31.9746 126.868 32.0144 126.625C32.0493 126.411 32.0628 126.229 32.0585 126.278L21.4613 125.35C21.4615 125.348 21.4629 125.331 21.4646 125.312C21.4664 125.293 21.4693 125.262 21.4732 125.226C21.4809 125.154 21.4941 125.041 21.5164 124.905C21.5615 124.63 21.6488 124.223 21.8343 123.755L31.7223 127.678ZM31.2819 128.548L31.2387 128.614L22.3179 122.819L22.3612 122.752L31.2819 128.548ZM32.6373 123.255C32.6187 124.766 32.3163 126.257 31.7488 127.653L21.8942 123.647C21.9626 123.479 21.9981 123.302 22.0003 123.124L32.6373 123.255ZM20.4906 111.027C27.2048 111.034 32.6292 116.481 32.6377 123.183L21.9999 123.196C21.9988 122.342 21.3101 121.665 20.4793 121.664L20.4906 111.027ZM42.4853 68.1184C42.3387 67.4084 41.7167 66.9084 41.0078 66.9089L40.9999 56.271C46.7693 56.2668 51.7384 60.324 52.9035 65.9677L42.4853 68.1184ZM41.6039 69.8222C42.2593 69.5394 42.6324 68.8304 42.4855 68.1195L52.9033 65.9667C54.0696 71.6112 51.1147 77.3041 45.8187 79.5895L41.6039 69.8222ZM43.1576 69.4239C43.2032 69.4199 43.0312 69.4327 42.8298 69.4647C42.6009 69.5011 42.2471 69.5734 41.8342 69.7292L45.5885 79.6825C45.1451 79.8498 44.7607 79.9291 44.5011 79.9704C44.3726 79.9909 44.2665 80.0032 44.1985 80.0103C44.1639 80.0139 44.1353 80.0167 44.1163 80.0184C44.0987 80.02 44.0831 80.0214 44.0812 80.0215L43.1576 69.4239ZM41.5482 69.803C42.0223 69.613 42.4354 69.5245 42.7121 69.4791C42.8489 69.4567 42.9619 69.4434 43.0334 69.4358C43.0699 69.4319 43.1001 69.429 43.1199 69.4272C43.1383 69.4255 43.1547 69.4241 43.1564 69.424L44.0824 80.0214C44.0329 80.0257 44.2176 80.0121 44.4329 79.9768C44.6785 79.9366 45.0608 79.8555 45.5045 79.6777L41.5482 69.803ZM40.5424 70.3367L40.6009 70.2982L46.4518 79.1825L46.3934 79.221L40.5424 70.3367ZM40.9383 69.9592C41.1168 69.957 41.2933 69.9214 41.4603 69.8534L45.4755 79.7043C44.0761 80.2747 42.5822 80.5776 41.0694 80.5962L40.9383 69.9592ZM39.4898 68.4338C39.4898 69.2843 40.1753 69.9588 41.0039 69.9588V80.5966C34.2843 80.5966 28.8519 75.1435 28.8519 68.4338H39.4898ZM41.0039 66.9089C40.1753 66.9089 39.4898 67.5834 39.4898 68.4338H28.8519C28.8519 61.7242 34.2843 56.271 41.0039 56.271V66.9089ZM62.1855 117.371L49.5581 85.7475L59.4374 81.8026L72.0649 113.426L62.1855 117.371ZM92.587 101.813L70.4511 119.549L63.7993 111.247L85.9353 93.5109L92.587 101.813ZM88.0436 86.4126C88.8735 89.2191 90.497 91.7216 92.7163 93.6179L85.806 101.706C82.0195 98.4703 79.2547 94.2051 77.8424 89.4291L88.0436 86.4126ZM56.9134 77.2821L83.9877 82.7055L81.8983 93.1361L54.8239 87.7127L56.9134 77.2821ZM51.1156 79.666C51.572 79.2642 51.8061 79.0529 51.9975 78.8498L59.7398 86.145C59.1522 86.7686 58.5416 87.3012 58.1458 87.6497L51.1156 79.666ZM50.9813 79.7843L51.1143 79.6671L58.1471 87.6486L58.0141 87.7658L50.9813 79.7843ZM66.8769 137.293C67.0826 138.029 67.794 138.489 68.5343 138.387L69.9889 148.925C63.9658 149.757 58.2663 146.004 56.6318 140.157L66.8769 137.293ZM67.733 135.485C67.0419 135.785 66.6706 136.555 66.877 137.294L56.6317 140.157C54.9979 134.311 57.9225 128.148 63.4951 125.727L67.733 135.485ZM66.255 135.879C66.2125 135.884 66.3631 135.87 66.5396 135.84C66.739 135.807 67.0575 135.741 67.4338 135.604L63.7943 125.608C64.2003 125.46 64.549 125.388 64.7787 125.349C64.8934 125.33 64.9881 125.318 65.0488 125.31C65.1047 125.304 65.1539 125.299 65.1546 125.299L66.255 135.879ZM67.7931 135.501C67.3411 135.684 66.9478 135.773 66.6844 135.82C66.5537 135.843 66.4457 135.857 66.3768 135.866C66.3132 135.873 66.2574 135.879 66.2573 135.879L65.1524 125.299C65.2003 125.294 65.0264 125.31 64.8233 125.346C64.5924 125.387 64.2315 125.467 63.8114 125.637L67.7931 135.501ZM68.7862 134.973L68.7277 135.011L62.8768 126.127L62.9352 126.089L68.7862 134.973ZM68.3902 135.35C68.2118 135.353 68.0353 135.388 67.8683 135.456L63.8531 125.605C65.2524 125.035 66.7464 124.732 68.2591 124.713L68.3902 135.35ZM69.8388 136.881C69.8379 136.027 69.1496 135.351 68.3202 135.351L68.3292 124.713C75.0447 124.719 80.4695 130.167 80.4766 136.87L69.8388 136.881ZM68.5341 138.387C69.277 138.285 69.8395 137.646 69.8388 136.881L80.4767 136.871C80.4823 142.943 76.008 148.094 69.989 148.925L68.5341 138.387ZM69.835 34.21C69.835 27.5004 75.2674 22.0472 81.987 22.0472V32.6851C81.1584 32.6851 80.4729 33.3596 80.4729 34.21H69.835ZM81.987 46.3728C75.2686 46.3728 69.835 40.9201 69.835 34.21H80.4729C80.4729 35.0601 81.1588 35.735 81.987 35.735V46.3728ZM94.1389 34.21C94.1389 40.9201 88.7054 46.3728 81.987 46.3728V35.735C82.8152 35.735 83.5011 35.0601 83.5011 34.21H94.1389ZM81.9926 22.0472C88.7062 22.0544 94.1319 27.5007 94.1389 34.2044L83.5011 34.2156C83.5002 33.3624 82.8127 32.6859 81.9813 32.6851L81.9926 22.0472ZM119.255 34.0004L103.647 37.9088L101.063 27.5895L116.671 23.6812L119.255 34.0004ZM121.181 41.1038C117.685 38.4798 114.909 35.0129 113.113 31.0247L122.813 26.6568C123.871 29.0065 125.507 31.0497 127.567 32.5963L121.181 41.1038ZM95.5907 58.1503L120.61 33.0919L128.138 40.6082L103.119 65.6666L95.5907 58.1503ZM78.7479 72.0045C82.2606 63.8151 89.7398 58.0109 98.5431 56.6518L100.166 67.1651C94.9943 67.9635 90.5932 71.3748 88.5244 76.1979L78.7479 72.0045ZM62.4256 64.4281L84.6808 68.8858L82.5915 79.3165L60.3363 74.8587L62.4256 64.4281ZM66.707 69.8574C66.7007 69.9029 66.6965 69.9324 66.6929 69.9597C66.6894 69.9855 66.6876 70 66.6867 70.0078C66.6847 70.0244 66.6883 69.998 66.6913 69.9456L56.0706 69.3412C56.0951 68.9105 56.1523 68.5228 56.1718 68.3834L66.707 69.8574ZM66.8216 68.4339C66.8216 69.0979 66.731 69.6858 66.707 69.8574L56.1718 68.3835C56.1759 68.3542 56.179 68.3318 56.182 68.3104C56.1848 68.2896 56.187 68.2736 56.1887 68.2606C56.1922 68.234 56.1929 68.2264 56.1925 68.2303C56.192 68.2348 56.1899 68.2562 56.1878 68.29C56.1858 68.3242 56.1837 68.3731 56.1837 68.4339H66.8216ZM65.1317 59.4345C66.2243 62.2948 66.7971 65.3279 66.8214 68.3918L56.1839 68.476C56.1697 66.6827 55.8345 64.9067 55.1942 63.2306L65.1317 59.4345ZM75.0123 55.9029L63.5636 65.4224L56.7623 57.2428L68.211 47.7232L75.0123 55.9029ZM81.9746 60.0642C77.3481 60.0399 72.8134 58.7609 68.8548 56.3618L74.3685 47.2643C76.68 48.6653 79.3283 49.4123 82.0305 49.4265L81.9746 60.0642ZM107.821 34.2185C107.806 48.4783 96.2659 60.0491 82.0082 60.0643L81.9969 49.4264C90.3724 49.4175 97.1747 42.6166 97.1836 34.2073L107.821 34.2185ZM107.693 32.6142C107.725 32.8487 107.821 33.4921 107.821 34.2129H97.1836C97.1836 34.296 97.189 34.3382 97.1864 34.3123C97.1851 34.2997 97.1824 34.2758 97.177 34.2333C97.1712 34.1881 97.1645 34.1391 97.154 34.0633L107.693 32.6142ZM107.742 33.3386V33.3388H97.1044V33.3386H107.742ZM107.742 33.3385V33.3386H97.1044V33.3385H107.742ZM107.66 32.361C107.659 32.3514 107.66 32.3618 107.665 32.4055C107.671 32.4543 107.678 32.5097 107.693 32.6142L97.154 34.0628C97.1308 33.8941 97.0793 33.5325 97.0504 33.1373L107.66 32.361ZM102.505 94.2836C95.7854 94.2836 90.353 88.8305 90.353 82.1208H100.991C100.991 82.9713 101.676 83.6458 102.505 83.6458V94.2836ZM114.657 82.1253C114.651 88.8309 109.223 94.2765 102.511 94.2836L102.499 83.6458C103.332 83.6449 104.018 82.9676 104.019 82.1163L114.657 82.1253ZM102.505 69.958C109.225 69.958 114.657 75.4111 114.657 82.1208H104.019C104.019 81.2704 103.334 80.5958 102.505 80.5958V69.958ZM90.353 82.1208C90.353 75.4111 95.7854 69.958 102.505 69.958V80.5958C101.676 80.5958 100.991 81.2704 100.991 82.1208H90.353ZM136.657 18.9994C135.829 18.9994 135.143 19.6739 135.143 20.5243H124.505C124.505 13.8147 129.938 8.36153 136.657 8.36153V18.9994ZM138.171 20.5288C138.171 19.6779 137.484 19.0003 136.652 18.9994L136.663 8.36154C143.376 8.36867 148.804 13.8155 148.809 20.5198L138.171 20.5288ZM136.657 22.0493C137.486 22.0493 138.171 21.3748 138.171 20.5243H148.809C148.809 27.234 143.377 32.6871 136.657 32.6871V22.0493ZM135.143 20.5243C135.143 21.3748 135.829 22.0493 136.657 22.0493V32.6871C129.938 32.6871 124.505 27.234 124.505 20.5243H135.143ZM111.038 62.0437L131.554 41.4977L139.081 49.0142L118.565 69.5603L111.038 62.0437ZM116.734 77.0636C115.741 74.2704 113.953 71.8301 111.592 70.0435L118.011 61.5604C122.029 64.6006 125.069 68.7515 126.757 73.5007L116.734 77.0636ZM137.931 80.6011H121.746V69.9633H137.931V80.6011ZM149.538 69.0774C146.473 70.8821 144.137 73.7093 142.942 77.0664L132.92 73.498C134.952 67.7919 138.924 62.982 144.141 59.9102L149.538 69.0774ZM139.88 42.5229L151.403 61.7608L142.277 67.2268L130.754 47.989L139.88 42.5229ZM176.734 38.2213L154.479 33.7635L156.568 23.3328L178.824 27.7906L176.734 38.2213ZM172.453 32.7905C172.459 32.7451 172.464 32.7156 172.467 32.6883C172.471 32.6626 172.472 32.6481 172.473 32.6404C172.475 32.624 172.472 32.6506 172.469 32.7033L183.089 33.3086C183.065 33.7388 183.008 34.1262 182.988 34.265L172.453 32.7905ZM172.561 32.2378L172.561 32.2377L182.881 34.8178L182.881 34.8179L172.561 32.2378ZM172.338 34.2146C172.338 33.5502 172.429 32.962 172.453 32.7903L182.988 34.2654C182.984 34.2946 182.981 34.317 182.978 34.3384C182.975 34.3592 182.973 34.3751 182.971 34.3881C182.968 34.4147 182.967 34.4223 182.967 34.4183C182.968 34.4138 182.97 34.3924 182.972 34.3586C182.974 34.3244 182.976 34.2754 182.976 34.2146H172.338ZM176.348 47.9388C173.742 43.8401 172.353 39.0861 172.338 34.2301L182.976 34.1992C182.985 37.0461 183.799 39.8313 185.325 42.2308L176.348 47.9388ZM156.518 54.391L177.961 40.6102L183.712 49.5594L162.269 63.3402L156.518 54.391ZM151.552 35.4258L163.956 56.1323L154.83 61.5989L142.426 40.8925L151.552 35.4258ZM160.405 30.6613C158.207 35.7375 154.443 39.9772 149.663 42.7569L144.315 33.5613C147.129 31.9249 149.347 29.4274 150.643 26.435L160.405 30.6613ZM157.173 94.2836C150.453 94.2836 145.021 88.8305 145.021 82.1208H155.659C155.659 82.9713 156.344 83.6458 157.173 83.6458V94.2836ZM169.325 82.1253C169.319 88.8309 163.891 94.2765 157.178 94.2836L157.167 83.6458C158 83.6449 158.686 82.9676 158.687 82.1163L169.325 82.1253ZM157.173 69.958C163.892 69.958 169.325 75.4111 169.325 82.1208H158.687C158.687 81.2704 158.001 80.5958 157.173 80.5958V69.958ZM145.021 82.1208C145.021 75.4111 150.453 69.958 157.173 69.958V80.5958C156.344 80.5958 155.659 81.2704 155.659 82.1208H145.021ZM198.157 32.6851C197.328 32.6851 196.643 33.3596 196.643 34.21H186.005C186.005 27.5004 191.437 22.0472 198.157 22.0472V32.6851ZM199.671 34.2145C199.67 33.3632 198.983 32.6859 198.151 32.6851L198.162 22.0472C204.875 22.0544 210.303 27.4999 210.309 34.2055L199.671 34.2145ZM198.157 35.735C198.985 35.735 199.671 35.0605 199.671 34.21H210.309C210.309 40.9197 204.876 46.3728 198.157 46.3728V35.735ZM196.643 34.21C196.643 35.0605 197.328 35.735 198.157 35.735V46.3728C191.437 46.3728 186.005 40.9197 186.005 34.21H196.643ZM194.122 48.7839C197.223 49.7664 200.57 49.6245 203.577 48.3826L207.638 58.2148C202.318 60.4121 196.395 60.6631 190.909 58.9251L194.122 48.7839ZM168.542 62.9385L189.64 49.3799L195.391 58.3291L174.293 71.8877L168.542 62.9385ZM171.389 77.0353C170.62 74.8344 169.354 72.8406 167.692 71.2096L175.143 63.6166C177.971 66.3921 180.123 69.7832 181.431 73.5255L171.389 77.0353ZM206.262 80.5993H176.41V69.9615H206.262V80.5993ZM217.264 69.3875C214.488 71.215 212.386 73.9053 211.279 77.0471L201.246 73.5137C203.123 68.1827 206.693 63.6113 211.413 60.503L217.264 69.3875ZM209.863 50.1083L218.594 61.7548L210.082 68.1356L201.352 56.4891L209.863 50.1083ZM225.504 83.6458C226.332 83.6458 227.018 82.9713 227.018 82.1208H237.656C237.656 88.8304 232.223 94.2836 225.504 94.2836V83.6458ZM223.99 82.1208C223.99 82.9713 224.675 83.6458 225.504 83.6458V94.2836C218.784 94.2836 213.352 88.8304 213.352 82.1208H223.99ZM225.504 80.5958C224.675 80.5958 223.99 81.2703 223.99 82.1208H213.352C213.352 75.4112 218.784 69.958 225.504 69.958V80.5958ZM227.018 82.1264C227.017 81.2722 226.329 80.5966 225.499 80.5958L225.508 69.958C232.224 69.9637 237.648 75.4126 237.656 82.1152L227.018 82.1264ZM217.138 143.719C217.138 150.427 211.706 155.881 204.986 155.881V145.244C205.814 145.244 206.5 144.569 206.5 143.719H217.138ZM204.986 131.556C211.706 131.556 217.138 137.009 217.138 143.719H206.5C206.5 142.868 205.815 142.194 204.986 142.194V131.556ZM192.834 143.719C192.834 137.01 198.266 131.556 204.986 131.556V142.194C204.158 142.194 203.472 142.869 203.472 143.719H192.834ZM204.981 155.881C198.268 155.874 192.84 150.429 192.834 143.723L203.472 143.714C203.473 144.565 204.159 145.243 204.992 145.244L204.981 155.881ZM200.072 118.362C201.686 118.041 203.326 117.875 204.968 117.866L205.027 128.504C204.061 128.509 203.097 128.606 202.151 128.795L200.072 118.362ZM173.643 93.7229L204.52 119.495L197.703 127.662L166.826 101.89L173.643 93.7229ZM181.415 90.753C179.864 95.0946 177.18 98.9417 173.64 101.892L166.829 93.7204C168.907 91.9886 170.485 89.7289 171.396 87.176L181.415 90.753ZM206.258 94.2835H176.405V83.6456H206.258V94.2835ZM213.878 105.104C207.986 102.113 203.468 96.9751 201.248 90.7514L211.267 87.1777C212.574 90.8417 215.232 93.8618 218.692 95.6179L213.878 105.104ZM202.042 121.391L211.354 98.3667L221.216 102.355L211.904 125.379L202.042 121.391ZM207.021 118.032C207.261 118.065 207.385 118.081 207.494 118.092L206.452 128.679C206.11 128.645 205.788 128.6 205.581 128.572L207.021 118.032ZM206.858 118.012L206.858 118.012L205.744 128.592L205.744 128.592L206.858 118.012ZM206.857 118.012L206.858 118.012L205.744 128.592L205.744 128.592L206.857 118.012ZM206.857 118.012L206.857 118.012L205.744 128.592L205.744 128.592L206.857 118.012ZM206.857 118.012L206.857 118.012L205.744 128.592L205.743 128.592L206.857 118.012ZM206.857 118.012L206.857 118.012L205.743 128.592L205.743 128.592L206.857 118.012ZM206.857 118.012L206.857 118.012L205.743 128.592L205.743 128.592L206.857 118.012ZM206.856 118.012L206.857 118.012L205.743 128.592L205.743 128.592L206.856 118.012ZM207.052 118.036L207.052 118.036L205.547 128.567L205.547 128.567L207.052 118.036ZM204.998 117.866C205.862 117.866 206.644 117.981 207.019 118.032L205.58 128.572C205.35 128.54 205.227 128.524 205.118 128.513C205.02 128.503 204.989 128.504 204.998 128.504V117.866ZM185.768 142.194H149.082V131.556H185.768V142.194ZM193.084 134.455C192.097 135.723 191.319 137.142 190.78 138.658L180.757 135.091C181.677 132.507 183.005 130.086 184.689 127.921L193.084 134.455ZM158.735 99.0939L192.295 127.105L185.478 135.272L151.919 107.261L158.735 99.0939ZM139.04 126.686L150.468 101.014L160.186 105.34L148.758 131.012L139.04 126.686ZM144.065 138.64C143.271 136.383 141.955 134.346 140.227 132.697L147.571 125.001C150.513 127.808 152.75 131.272 154.1 135.109L144.065 138.64ZM137.916 94.2835H121.73V83.6456H137.916V94.2835ZM139.427 100.838C136.485 98.0304 134.249 94.5667 132.899 90.7302L142.933 87.1989C143.728 89.4563 145.043 91.493 146.772 93.1431L139.427 100.838ZM126.51 121.179L138.24 94.8275L147.959 99.1538L136.228 125.505L126.51 121.179ZM131.479 118.001C131.588 118.016 131.649 118.024 131.704 118.031C131.754 118.037 131.772 118.038 131.77 118.038L130.968 128.646C130.57 128.616 130.205 128.564 130.027 128.539L131.479 118.001ZM129.823 117.867C130.563 117.867 131.226 117.966 131.479 118.001L130.027 128.539C129.946 128.528 129.893 128.521 129.843 128.514C129.796 128.508 129.767 128.505 129.75 128.503C129.715 128.5 129.748 128.504 129.823 128.504V117.867ZM126.128 118.227C127.293 118.026 128.471 117.907 129.654 117.869L129.991 128.502C129.3 128.524 128.612 128.593 127.929 128.711L126.128 118.227ZM117.384 97.0195L131.591 120.735L122.466 126.202L108.258 102.486L117.384 97.0195ZM126.741 90.7487C124.709 96.4549 120.737 101.265 115.52 104.337L110.123 95.1693C113.188 93.3646 115.524 90.5374 116.719 87.1804L126.741 90.7487ZM141.978 143.719C141.978 150.427 136.546 155.881 129.826 155.881V145.244C130.654 145.244 131.34 144.569 131.34 143.719H141.978ZM129.826 131.556C136.544 131.556 141.978 137.008 141.978 143.719H131.34C131.34 142.869 130.654 142.194 129.826 142.194V131.556ZM117.674 143.719C117.674 137.01 123.106 131.556 129.826 131.556V142.194C128.998 142.194 128.312 142.869 128.312 143.719H117.674ZM129.82 155.881C123.108 155.874 117.68 150.429 117.674 143.723L128.312 143.714C128.313 144.565 128.999 145.243 129.832 145.244L129.82 155.881ZM103.982 110.196L84.8988 125.487L78.2469 117.186L97.3303 101.895L103.982 110.196ZM110.305 132.507L96.0932 108.778L105.219 103.312L119.431 127.041L110.305 132.507ZM106.08 133.578C107.276 130.826 108.941 128.302 111.002 126.121L118.735 133.427C117.522 134.71 116.541 136.196 115.836 137.818L106.08 133.578ZM88.9357 125.862L112.003 130.483L109.914 140.913L86.8463 136.293L88.9357 125.862ZM85.0292 117.294C88.8134 120.529 91.579 124.793 92.9915 129.569L82.7905 132.586C81.9608 129.781 80.3366 127.277 78.1166 125.379L85.0292 117.294ZM100.996 212.16C100.996 218.869 95.5641 224.323 88.8445 224.323V213.685C89.6731 213.685 90.3586 213.01 90.3586 212.16H100.996ZM88.8445 199.997C95.5641 199.997 100.996 205.45 100.996 212.16H90.3586C90.3586 211.309 89.6731 210.635 88.8445 210.635V199.997ZM76.6926 212.16C76.6926 205.45 82.1249 199.997 88.8445 199.997V210.635C88.016 210.635 87.3304 211.309 87.3304 212.16H76.6926ZM88.84 224.323C82.1256 224.317 76.6982 218.869 76.6926 212.164L87.3304 212.155C87.3311 213.008 88.0185 213.684 88.849 213.685L88.84 224.323ZM66.8088 184.84C66.7775 187.725 66.2591 190.584 65.276 193.297L55.2749 189.671C55.8501 188.085 56.1533 186.412 56.1716 184.724L66.8088 184.84ZM54.8431 163.025C62.2832 167.752 66.794 175.954 66.8091 184.773L56.1713 184.791C56.1624 179.601 53.5078 174.78 49.138 172.003L54.8431 163.025ZM64.7363 158.919L56.3065 170.623L47.6747 164.405L56.1045 152.702L64.7363 158.919ZM92.0887 146.965C86.5512 160.064 71.4724 166.22 58.3611 160.715L62.4796 150.906C70.1726 154.137 79.0322 150.53 82.2904 142.823L92.0887 146.965ZM109.212 154.73L86.1449 150.109L88.2343 139.678L111.301 144.299L109.212 154.73ZM110.673 160.93C108.118 158.076 106.232 154.688 105.153 151.013L115.36 148.016C115.993 150.173 117.1 152.16 118.598 153.833L110.673 160.93ZM87.5036 189.024L110.189 154.463L119.082 160.3L96.3968 194.861L87.5036 189.024ZM67.329 197.855C72.8039 189.29 82.909 184.882 92.9069 186.711L90.9935 197.175C85.2529 196.125 79.4434 198.654 76.2923 203.584L67.329 197.855ZM63.5997 187.332L75.135 196.567L68.4863 204.872L56.9511 195.636L63.5997 187.332ZM46.7487 86.9122L59.787 119.563L49.9077 123.508L36.8694 90.8573L46.7487 86.9122ZM40.6823 83.6605C40.7619 83.649 41.15 83.5884 41.5906 83.5703L42.0276 94.1992C42.1403 94.1945 42.2203 94.1856 42.2472 94.1825C42.2611 94.1808 42.2666 94.18 42.258 94.1812C42.2475 94.1826 42.2342 94.1845 42.201 94.1893L40.6823 83.6605ZM41.0027 83.6476C40.8341 83.6476 40.7098 83.6593 40.6577 83.6649C40.6313 83.6677 40.6169 83.6697 40.6222 83.669C40.6302 83.6679 40.6422 83.6662 40.6823 83.6605L42.201 94.1893C42.1125 94.2021 41.5954 94.2855 41.0027 94.2855V83.6476ZM39.4041 83.4688C40.0045 83.5671 40.6076 83.6282 41.2098 83.6517L40.7956 94.2814C39.7514 94.2407 38.7129 94.135 37.6861 93.967L39.4041 83.4688ZM25.515 102.868L33.7887 86.3374L43.3016 91.0985L35.0279 107.63L25.515 102.868ZM35.6838 123.206C35.6642 117.654 32.6146 112.561 27.7429 109.928L32.8 100.57C41.1028 105.056 46.2883 113.728 46.3216 123.169L35.6838 123.206ZM35.6967 122.866C35.7024 122.827 35.7041 122.815 35.7052 122.807C35.7059 122.802 35.7038 122.816 35.701 122.843C35.6954 122.895 35.6838 123.019 35.6838 123.188H46.3216C46.3216 123.779 46.2386 124.295 46.2259 124.383L35.6967 122.866ZM35.6059 123.797C35.623 123.344 35.6851 122.947 35.6968 122.866L46.2258 124.384C46.2209 124.417 46.2191 124.43 46.2177 124.441C46.2165 124.449 46.2175 124.442 46.2192 124.427C46.2226 124.398 46.2317 124.315 46.2361 124.198L35.6059 123.797ZM48.1311 132.614L38.9437 128.935L42.8983 119.06L52.0856 122.739L48.1311 132.614ZM58.3681 125.522C56.9195 126.801 55.7278 128.346 54.8578 130.071L45.359 125.282C46.8384 122.348 48.8642 119.723 51.3267 117.548L58.3681 125.522ZM41.0037 186.31C41.8323 186.31 42.5178 185.636 42.5178 184.785H53.1557C53.1557 191.495 47.7233 196.948 41.0037 196.948V186.31ZM39.4896 184.785C39.4896 185.636 40.1751 186.31 41.0037 186.31V196.948C34.2841 196.948 28.8517 191.495 28.8517 184.785H39.4896ZM41.0037 183.26C40.1751 183.26 39.4896 183.935 39.4896 184.785H28.8517C28.8517 178.076 34.2841 172.622 41.0037 172.622V183.26ZM42.5178 184.791C42.5169 183.937 41.8287 183.261 40.9992 183.26L41.0082 172.622C47.7236 172.628 53.1486 178.077 53.1556 184.78L42.5178 184.791Z" fill="white" mask="url(#path-1-inside-1)"/>
</g>
<defs>
<linearGradient id="paint0_linear" x1="123" y1="0" x2="123" y2="232.703" gradientUnits="userSpaceOnUse">
<stop stop-color="#00A3FF"/>
<stop offset="1" stop-color="#00A3FF" stop-opacity="0"/>
</linearGradient>
</defs>
</svg>
