<svg width="36" height="36" viewBox="0 0 36 36" fill="none" xmlns="http://www.w3.org/2000/svg">
  <path fillRule="evenodd" clipRule="evenodd" d="M18 36C8.05887 36 0 27.9411 0 18C0 8.05887 8.05887 0 18 0C27.9411 0 36 8.05887 36 18C36 27.9411 27.9411 36 18 36Z" fill="#0556F3"/>
  <path d="M27.1528 12.6777L27.2062 12.6417C27.0993 12.4442 26.939 12.2646 26.7786 12.1748L18.1732 7.18198C18.0307 7.09218 17.8347 7.05626 17.6209 7.05626C17.4071 7.05626 17.2112 7.11014 17.0686 7.18198L8.51668 12.1927C8.2138 12.3723 8 12.8213 8 13.1626V23.1662C8 23.3637 8.03563 23.5792 8.16035 23.7768L8.12472 23.7947C8.2138 23.9384 8.33851 24.0641 8.46323 24.136L17.0508 29.1467C17.1933 29.2365 17.3893 29.2725 17.6031 29.2725C17.8169 29.2725 18.0129 29.2186 18.1554 29.1467L26.7074 24.136C27.0103 23.9564 27.224 23.5074 27.224 23.1662V13.1446C27.2419 13.0009 27.224 12.8393 27.1528 12.6777ZM17.6209 22.5555C19.2422 22.5555 20.6676 21.6575 21.4159 20.3285L23.7142 21.6935C22.5027 23.8127 20.2221 25.2495 17.6209 25.2495C13.7369 25.2495 10.5834 22.0706 10.5834 18.1554C10.5834 14.2402 13.7369 11.0613 17.6209 11.0613C20.24 11.0613 22.5205 12.516 23.732 14.6532L21.4159 16.0002C20.6676 14.6532 19.2422 13.7552 17.6209 13.7552C15.2157 13.7552 13.2559 15.7308 13.2559 18.1554C13.2559 20.5799 15.2157 22.5555 17.6209 22.5555Z" fill="white"/>
</svg>
