<svg width="36" height="36" viewBox="0 0 36 36" fill="none" xmlns="http://www.w3.org/2000/svg">
  <path fillRule="evenodd" clipRule="evenodd" d="M18 36C8.05887 36 0 27.9411 0 18C0 8.05887 8.05887 0 18 0C27.9411 0 36 8.05887 36 18C36 27.9411 27.9411 36 18 36Z" fill="#0556F3"/>
  <path d="M28.7 20.564C28.5 19.052 27.5 17.7415 24.6 16.5319C23.6 16.0279 22.5 15.7254 22.1 14.919C22 14.6166 22 14.3142 22 14.1126C22.2 13.2053 23.3 12.9029 24.1 13.2053C24.6 13.407 25.1 13.8102 25.4 14.415C26.8 13.5078 26.8 13.5078 27.8 12.8021C27.4 12.1973 27.2 11.9957 27 11.6933C26.1 10.6853 25 10.1812 23.1 10.282L22.1 10.3828C21.2 10.5844 20.3 11.0885 19.8 11.7941C18.2 13.6086 18.7 16.7335 20.6 18.0439C22.5 19.4552 25.2 19.7576 25.6 21.068C25.9 22.6809 24.4 23.1849 22.9 22.9833C21.8 22.7817 21.2 22.1769 20.5 21.1688C19.3 21.8745 19.3 21.8745 18 22.5801C18.3 23.2857 18.6 23.5881 19.1 24.0922C21.5 26.5114 27.5 26.4106 28.6 22.6809C28.7 22.7817 29 21.8745 28.7 20.564ZM16.3 10.5844H13.2V18.6488C13.2 20.3624 13.3 21.9753 13 22.3785C12.5 23.2857 11.4 23.1849 10.8 22.9833C10.3 22.6809 10 22.3785 9.7 21.7737C9.6 21.5721 9.5 21.4713 9.5 21.4713L7 22.9833C7.4 23.8905 8 24.5962 8.8 25.1002C10 25.8058 11.6 26.0074 13.2 25.6042C14.3 25.3018 15.2 24.5962 15.7 23.5881C16.4 22.2777 16.3 20.6648 16.2 18.9512C16.4 16.2295 16.3 13.407 16.3 10.5844Z" fill="white"/>
</svg>
