<svg width="36" height="36" viewBox="0 0 36 36" fill="none" xmlns="http://www.w3.org/2000/svg">
  <path fillRule="evenodd" clipRule="evenodd" d="M18 36C8.05887 36 0 27.9411 0 18C0 8.05887 8.05887 0 18 0C27.9411 0 36 8.05887 36 18C36 27.9411 27.9411 36 18 36Z" fill="#0556F3"/>
  <path fillRule="evenodd" clipRule="evenodd" d="M22.9 25.1C24 24.7 26.2 24 27.4 26.2C27.7 26.7 28.3 24 26.1 21.4V21.3C26.1 21.2 26.1 21.2 26.2 21.1C27.3 17.1 24.7 12.4 20.3 9.79999C22.2 12.3 23.1 15.3 22.3 17.9C22.2 18.1 22.1 18.4 22.1 18.6C22 18.5 21.9 18.5 21.8 18.4C18.5 16.4 15.5 14 12.7 11.3C14.4 13.6 16.2 15.9 18.2 17.9C16.8 17.1 12.8 14.4 10.3 12.2C10.6 12.7 11 13.2 11.4 13.6C13.5 16.1 16.2 19.2 19.5 21.6C17.2 23 14 23.1 10.7 21.6C9.9 21.3 9.2 20.8 8.5 20.3C10 22.5 12.1 24.2 14.5 25.2C17.5 26.5 20.6 26.4 22.9 25.1Z" fill="white"/>
</svg>
