<svg width="36" height="36" viewBox="0 0 36 36" fill="none" xmlns="http://www.w3.org/2000/svg">
<path fill-rule="evenodd" clip-rule="evenodd" d="M18 36C8.05887 36 0 27.9411 0 18C0 8.05887 8.05887 0 18 0C27.9411 0 36 8.05887 36 18C36 27.9411 27.9411 36 18 36Z" fill="#0556F3"/>
<path fill-rule="evenodd" clip-rule="evenodd" d="M20.3151 6C20.3151 6 22.6007 8.28698 18.1467 11.8026C15.3848 13.984 16.4072 15.4401 17.3889 16.8381L17.3889 16.8381C17.6767 17.248 17.9611 17.653 18.1455 18.0698C16.0603 16.1887 14.5308 14.5325 15.5568 12.9912C16.058 12.2386 16.8545 11.615 17.6603 10.9841C19.2765 9.7186 20.9303 8.42369 20.3151 6ZM19.1346 16.5192C20.1965 17.7415 18.8562 18.8404 18.8562 18.8404C18.8562 18.8404 21.5508 17.4496 20.3136 15.7073C20.2639 15.6375 20.2148 15.5693 20.1666 15.5023C19.0919 14.0102 18.4774 13.157 23.0692 10.4939L23.0684 10.4941C22.9811 10.5162 15.5591 12.3988 19.1346 16.5192ZM15.2249 23.0145C15.2249 23.0145 14.3847 23.5034 15.8236 23.6683C17.567 23.8675 18.4579 23.8389 20.3787 23.4759C20.3787 23.4759 20.8847 23.7922 21.59 24.0665C17.2827 25.9118 11.8422 23.9595 15.2249 23.0145ZM14.6982 20.606C14.6982 20.606 13.7557 21.3038 15.1958 21.4529C17.0582 21.6452 18.5286 21.6609 21.0743 21.1709C21.0743 21.1709 21.4256 21.5278 21.9788 21.7227C16.7721 23.2455 10.9729 21.8426 14.6982 20.606ZM24.1466 25.7063C25.4538 25.3099 24.8319 24.797 24.8319 24.797C27.1092 25.8247 19.8837 27.8891 11.1029 26.4657C7.88286 25.9431 12.6521 24.1213 13.5251 24.7359C13.5251 24.7359 13.2494 24.7168 12.7667 24.8213C12.3037 24.9213 10.832 25.3948 11.6165 25.7364C13.7998 26.6862 21.6612 26.4592 24.1466 25.7063ZM14.214 19.4061C11.6315 19.0609 15.6298 18.1111 15.6298 18.1111C15.6298 18.1111 14.0767 18.006 12.1676 18.9294C9.90935 20.0214 17.7527 20.519 21.8138 19.4507C22.2361 19.1627 22.8191 18.9126 22.8191 18.9126C22.8191 18.9126 21.1583 19.2096 19.5034 19.3487C17.4778 19.5186 15.3046 19.5521 14.214 19.4061ZM23.6894 18.1925C25.0217 17.9149 26.9304 19.9758 22.8025 22.1202C22.7851 22.1665 22.7316 22.2178 22.7217 22.2274L22.7201 22.2289C28.232 20.7798 26.2055 17.1213 23.5701 18.0474C23.3389 18.1292 23.2176 18.3194 23.2176 18.3194C23.2176 18.3194 23.3637 18.2604 23.6894 18.1925ZM26.2261 25.9157C26.0821 27.7903 19.9974 28.1846 16.036 27.9313C13.4325 27.7639 12.9258 27.3444 12.9258 27.3442C15.3991 27.7526 19.5705 27.8268 22.952 27.1902C25.9492 26.6264 26.2261 25.9157 26.2261 25.9157Z" fill="white"/>
<path d="M18.1467 11.8026L18.0228 11.6456L18.0228 11.6456L18.1467 11.8026ZM20.3151 6L20.4565 5.85862C20.3929 5.79493 20.2945 5.78163 20.2163 5.82612C20.138 5.87062 20.0991 5.96193 20.1212 6.04921L20.3151 6ZM17.3889 16.8381L17.5553 16.7271L17.5526 16.7232L17.3889 16.8381ZM17.3889 16.8381L17.2224 16.9491L17.2252 16.953L17.3889 16.8381ZM18.1455 18.0698L18.0115 18.2183C18.0816 18.2815 18.1863 18.2871 18.2628 18.2318C18.3392 18.1764 18.3666 18.0752 18.3284 17.9888L18.1455 18.0698ZM15.5568 12.9912L15.3903 12.8803L15.3903 12.8804L15.5568 12.9912ZM17.6603 10.9841L17.537 10.8266L17.6603 10.9841ZM18.8562 18.8404L18.7294 18.6857C18.6502 18.7506 18.6328 18.8648 18.6891 18.9503C18.7453 19.0358 18.857 19.0651 18.9479 19.0181L18.8562 18.8404ZM19.1346 16.5192L18.9836 16.6503L18.9837 16.6504L19.1346 16.5192ZM20.3136 15.7073L20.4766 15.5915L20.4765 15.5913L20.3136 15.7073ZM20.1666 15.5023L20.0043 15.6192L20.1666 15.5023ZM23.0692 10.4939L23.1695 10.6669C23.2559 10.6168 23.2921 10.5107 23.2544 10.4183C23.2166 10.3259 23.1166 10.2754 23.0198 10.3L23.0692 10.4939ZM23.0684 10.4941L23.1176 10.6879L23.1178 10.6879L23.0684 10.4941ZM15.8236 23.6683L15.8008 23.867L15.8009 23.867L15.8236 23.6683ZM15.2249 23.0145L15.3255 23.1873C15.4124 23.1367 15.4483 23.0293 15.4091 22.9366C15.3699 22.8439 15.268 22.7947 15.1711 22.8218L15.2249 23.0145ZM20.3787 23.4759L20.4847 23.3063C20.4421 23.2796 20.391 23.27 20.3415 23.2793L20.3787 23.4759ZM21.59 24.0665L21.6688 24.2503C21.7435 24.2183 21.7914 24.1443 21.79 24.0631C21.7886 23.9818 21.7382 23.9095 21.6625 23.8801L21.59 24.0665ZM15.1958 21.4529L15.1752 21.6518L15.1752 21.6518L15.1958 21.4529ZM14.6982 20.606L14.8172 20.7668C14.8962 20.7083 14.921 20.6011 14.8757 20.5139C14.8305 20.4267 14.7285 20.3853 14.6352 20.4162L14.6982 20.606ZM21.0743 21.1709L21.2169 21.0306C21.1699 20.9829 21.1023 20.9619 21.0365 20.9745L21.0743 21.1709ZM21.9788 21.7227L22.035 21.9147C22.1183 21.8903 22.1764 21.815 22.1788 21.7282C22.1811 21.6414 22.1272 21.563 22.0453 21.5341L21.9788 21.7227ZM24.8319 24.797L24.9141 24.6147C24.8228 24.5735 24.715 24.6062 24.6621 24.6913C24.6091 24.7764 24.6273 24.8876 24.7046 24.9513L24.8319 24.797ZM24.1466 25.7063L24.2046 25.8977L24.2046 25.8977L24.1466 25.7063ZM11.1029 26.4657L11.0709 26.6631L11.0709 26.6631L11.1029 26.4657ZM13.5251 24.7359L13.5113 24.9354C13.6008 24.9416 13.6835 24.8873 13.7135 24.8028C13.7436 24.7182 13.7136 24.624 13.6402 24.5723L13.5251 24.7359ZM12.7667 24.8213L12.8089 25.0168L12.809 25.0168L12.7667 24.8213ZM11.6165 25.7364L11.5366 25.9198L11.5367 25.9198L11.6165 25.7364ZM15.6298 18.1111L15.676 18.3057C15.7722 18.2828 15.8373 18.1931 15.8291 18.0945C15.8209 17.996 15.742 17.9182 15.6433 17.9115L15.6298 18.1111ZM14.214 19.4061L14.2405 19.2079L14.2405 19.2079L14.214 19.4061ZM12.1676 18.9294L12.2547 19.1094L12.2547 19.1094L12.1676 18.9294ZM21.8138 19.4507L21.8647 19.6441C21.8867 19.6383 21.9076 19.6288 21.9265 19.616L21.8138 19.4507ZM22.8191 18.9126L22.898 19.0964C22.9914 19.0564 23.0399 18.9526 23.0107 18.8552C22.9815 18.7579 22.884 18.6979 22.7839 18.7158L22.8191 18.9126ZM19.5034 19.3487L19.5201 19.548L19.5201 19.548L19.5034 19.3487ZM22.8025 22.1202L22.7103 21.9427C22.6665 21.9654 22.6327 22.0036 22.6153 22.0498L22.8025 22.1202ZM23.6894 18.1925L23.7302 18.3883L23.7302 18.3883L23.6894 18.1925ZM22.7217 22.2274L22.5832 22.083L22.5817 22.0845L22.7217 22.2274ZM22.7201 22.2289L22.5801 22.086C22.5153 22.1495 22.5013 22.2487 22.5461 22.3276C22.5909 22.4065 22.6832 22.4454 22.7709 22.4223L22.7201 22.2289ZM23.5701 18.0474L23.5038 17.8588L23.5034 17.8589L23.5701 18.0474ZM23.2176 18.3194L23.049 18.2119C23.0022 18.2852 23.0082 18.3804 23.0638 18.4473C23.1194 18.5141 23.2119 18.5374 23.2925 18.5048L23.2176 18.3194ZM16.036 27.9313L16.0232 28.1309L16.0233 28.1309L16.036 27.9313ZM26.2261 25.9157L26.4255 25.9311C26.4331 25.8322 26.3672 25.7428 26.2706 25.7207C26.1739 25.6987 26.0758 25.7508 26.0398 25.8431L26.2261 25.9157ZM12.9258 27.3442L12.9584 27.1469C12.9004 27.1373 12.8412 27.1537 12.7964 27.1917C12.7516 27.2297 12.7258 27.2855 12.7258 27.3442H12.9258ZM22.952 27.1902L22.915 26.9936L22.915 26.9936L22.952 27.1902ZM18.2706 11.9596C20.5256 10.1797 21.117 8.67594 21.1011 7.58005C21.0932 7.03636 20.9355 6.60935 20.7788 6.31763C20.7005 6.17186 20.6223 6.05952 20.5627 5.9826C20.5328 5.94411 20.5076 5.91439 20.4891 5.89367C20.4799 5.8833 20.4724 5.87518 20.4669 5.86933C20.4641 5.86641 20.4619 5.86405 20.4601 5.86227C20.4593 5.86137 20.4585 5.86062 20.4579 5.86002C20.4576 5.85971 20.4574 5.85944 20.4571 5.85921C20.457 5.8591 20.4569 5.85895 20.4568 5.85889C20.4567 5.85875 20.4565 5.85862 20.3151 6C20.1736 6.14138 20.1735 6.14127 20.1734 6.14116C20.1734 6.14114 20.1733 6.14104 20.1732 6.141C20.1731 6.14091 20.1731 6.14085 20.1731 6.14082C20.173 6.14077 20.1731 6.14086 20.1733 6.14108C20.1737 6.14151 20.1747 6.14249 20.1761 6.144C20.179 6.14702 20.1837 6.15217 20.1902 6.15942C20.2031 6.17392 20.2226 6.19675 20.2465 6.22767C20.2945 6.28955 20.36 6.38335 20.4264 6.50692C20.5591 6.75387 20.6944 7.11833 20.7011 7.58584C20.7146 8.51234 20.2218 9.90989 18.0228 11.6456L18.2706 11.9596ZM17.5526 16.7232C17.0532 16.012 16.594 15.3478 16.5638 14.606C16.5345 13.887 16.9123 13.0323 18.2707 11.9595L18.0228 11.6456C16.6191 12.7542 16.1273 13.7183 16.1641 14.6222C16.2 15.5033 16.7429 16.2662 17.2252 16.953L17.5526 16.7232ZM17.5553 16.7272L17.5553 16.7272L17.2225 16.949L17.2225 16.949L17.5553 16.7272ZM18.3284 17.9888C18.1346 17.5508 17.8378 17.1293 17.5526 16.7232L17.2252 16.953C17.5157 17.3668 17.7876 17.7552 17.9626 18.1507L18.3284 17.9888ZM15.3903 12.8804C15.1099 13.3016 15.0005 13.7384 15.0358 14.1862C15.0708 14.6293 15.2464 15.0701 15.5138 15.5074C16.0458 16.3773 16.9707 17.2794 18.0115 18.2183L18.2794 17.9213C17.235 16.9791 16.3527 16.1125 15.8551 15.2987C15.6077 14.8941 15.463 14.5144 15.4346 14.1547C15.4065 13.7996 15.4907 13.4514 15.7232 13.102L15.3903 12.8804ZM17.537 10.8266C16.7379 11.4523 15.9128 12.0958 15.3903 12.8803L15.7232 13.1021C16.2032 12.3815 16.9711 11.7777 17.7836 11.1415L17.537 10.8266ZM20.1212 6.04921C20.4136 7.20089 20.1682 8.07191 19.6596 8.81321C19.1416 9.56798 18.3509 10.1893 17.537 10.8266L17.7836 11.1415C18.5859 10.5133 19.4301 9.8545 19.9894 9.03953C20.5578 8.21109 20.8318 7.2228 20.5089 5.95079L20.1212 6.04921ZM18.8562 18.8404C18.983 18.9951 18.983 18.995 18.9831 18.9949C18.9832 18.9949 18.9832 18.9948 18.9833 18.9948C18.9834 18.9947 18.9836 18.9945 18.9838 18.9944C18.9841 18.9941 18.9846 18.9937 18.9851 18.9933C18.9861 18.9925 18.9875 18.9913 18.9891 18.9899C18.9924 18.9872 18.9969 18.9833 19.0025 18.9784C19.0137 18.9686 19.0294 18.9546 19.0485 18.9367C19.0867 18.9008 19.1392 18.8489 19.1982 18.7828C19.3155 18.6515 19.4625 18.46 19.5744 18.2237C19.6865 17.9869 19.7658 17.6993 19.7384 17.3804C19.7107 17.0591 19.5759 16.7222 19.2856 16.3881L18.9837 16.6504C19.2243 16.9274 19.3202 17.1862 19.3398 17.4147C19.3597 17.6456 19.3031 17.8619 19.2128 18.0526C19.1223 18.2438 19.0007 18.4035 18.8998 18.5164C18.8498 18.5724 18.8058 18.6159 18.7749 18.6449C18.7594 18.6594 18.7473 18.6702 18.7394 18.6771C18.7355 18.6806 18.7326 18.683 18.7309 18.6845C18.73 18.6852 18.7294 18.6857 18.7292 18.6859C18.7291 18.686 18.729 18.686 18.729 18.686C18.7291 18.686 18.7291 18.686 18.7291 18.6859C18.7292 18.6859 18.7292 18.6858 18.7292 18.6858C18.7293 18.6858 18.7294 18.6857 18.8562 18.8404ZM20.1505 15.823C20.4292 16.2155 20.4787 16.5727 20.4121 16.8909C20.3436 17.2177 20.148 17.5234 19.9015 17.792C19.6562 18.0592 19.3717 18.2776 19.1459 18.4301C19.0336 18.506 18.937 18.5648 18.869 18.6043C18.835 18.6241 18.8083 18.639 18.7903 18.6488C18.7813 18.6537 18.7745 18.6574 18.7701 18.6597C18.7679 18.6608 18.7664 18.6617 18.7654 18.6622C18.7649 18.6624 18.7646 18.6626 18.7644 18.6627C18.7644 18.6627 18.7643 18.6627 18.7643 18.6627C18.7643 18.6627 18.7643 18.6627 18.7643 18.6627C18.7644 18.6627 18.7644 18.6627 18.8562 18.8404C18.9479 19.0181 18.948 19.0181 18.948 19.018C18.9481 19.018 18.9482 19.018 18.9483 19.0179C18.9484 19.0178 18.9486 19.0177 18.9489 19.0176C18.9494 19.0174 18.95 19.017 18.9508 19.0166C18.9525 19.0157 18.9547 19.0146 18.9576 19.013C18.9633 19.01 18.9715 19.0056 18.982 18.9999C19.0029 18.9885 19.0328 18.9718 19.0701 18.9501C19.1446 18.9068 19.2489 18.8433 19.3698 18.7616C19.6107 18.5989 19.9225 18.3607 20.1962 18.0625C20.4687 17.7655 20.7148 17.3969 20.8036 16.9729C20.8942 16.5402 20.8166 16.0702 20.4766 15.5915L20.1505 15.823ZM20.0043 15.6192C20.0525 15.6862 20.1013 15.754 20.1506 15.8232L20.4765 15.5913C20.4265 15.521 20.377 15.4523 20.3288 15.3854L20.0043 15.6192ZM22.9688 10.3208C21.8167 10.989 20.983 11.5483 20.3991 12.0367C19.8172 12.5233 19.4675 12.9524 19.3067 13.3645C19.1413 13.788 19.1836 14.172 19.3362 14.5412C19.4839 14.8986 19.7397 15.2519 20.0043 15.6192L20.3288 15.3854C20.0561 15.0067 19.8321 14.6938 19.7058 14.3884C19.5844 14.0947 19.5586 13.8191 19.6793 13.5099C19.8044 13.1893 20.095 12.8125 20.6557 12.3435C21.2143 11.8763 22.0258 11.3302 23.1695 10.6669L22.9688 10.3208ZM23.1178 10.6879L23.1185 10.6877L23.0198 10.3L23.0191 10.3002L23.1178 10.6879ZM19.2857 16.3881C18.42 15.3905 18.2492 14.5658 18.4223 13.8924C18.5991 13.2045 19.1479 12.6174 19.8422 12.1339C21.2294 11.168 23.0752 10.6987 23.1176 10.6879L23.0192 10.3002C22.9743 10.3116 21.0655 10.7946 19.6137 11.8056C18.8885 12.3106 18.2468 12.9681 18.0349 13.7928C17.8192 14.6319 18.0615 15.5877 18.9836 16.6503L19.2857 16.3881ZM15.8464 23.4696C15.4932 23.4291 15.3085 23.3711 15.2205 23.322C15.1785 23.2985 15.1726 23.2847 15.1754 23.2895C15.1808 23.2989 15.1821 23.3126 15.1803 23.3209C15.1797 23.324 15.1808 23.3165 15.1942 23.2987C15.207 23.2819 15.2251 23.2635 15.2465 23.245C15.2674 23.227 15.2882 23.2119 15.3039 23.2012C15.3116 23.196 15.3178 23.1921 15.3217 23.1897C15.3236 23.1884 15.3249 23.1876 15.3256 23.1872C15.3259 23.187 15.3261 23.1869 15.3261 23.1869C15.3261 23.187 15.326 23.187 15.3259 23.187C15.3259 23.1871 15.3258 23.1871 15.3257 23.1872C15.3257 23.1872 15.3256 23.1872 15.3256 23.1872C15.3255 23.1873 15.3255 23.1873 15.2249 23.0145C15.1243 22.8416 15.1242 22.8416 15.1241 22.8417C15.1241 22.8417 15.124 22.8418 15.1239 22.8418C15.1238 22.8419 15.1237 22.8419 15.1235 22.842C15.1232 22.8422 15.1229 22.8424 15.1224 22.8427C15.1216 22.8432 15.1206 22.8438 15.1194 22.8445C15.117 22.8459 15.1138 22.8479 15.1099 22.8503C15.1022 22.8551 15.0917 22.8619 15.0792 22.8703C15.0546 22.887 15.021 22.9114 14.9857 22.9418C14.9247 22.9942 14.8187 23.0977 14.789 23.2382C14.7721 23.3178 14.7808 23.4056 14.8283 23.4884C14.8731 23.5666 14.9439 23.6256 15.0255 23.6712C15.1847 23.7601 15.4345 23.825 15.8008 23.867L15.8464 23.4696ZM20.3415 23.2793C18.4394 23.6389 17.5687 23.6664 15.8463 23.4696L15.8009 23.867C17.5653 24.0686 18.4764 24.039 20.4158 23.6724L20.3415 23.2793ZM21.6625 23.8801C21.3187 23.7464 21.0229 23.6022 20.8133 23.4915C20.7085 23.4362 20.6256 23.3894 20.5692 23.3566C20.541 23.3403 20.5195 23.3274 20.5052 23.3188C20.498 23.3145 20.4927 23.3112 20.4893 23.3091C20.4876 23.308 20.4863 23.3073 20.4856 23.3068C20.4852 23.3066 20.4849 23.3064 20.4848 23.3063C20.4847 23.3063 20.4847 23.3062 20.4847 23.3062C20.4846 23.3062 20.4847 23.3062 20.4847 23.3062C20.4847 23.3063 20.4847 23.3063 20.4847 23.3063C20.4847 23.3063 20.4847 23.3063 20.3787 23.4759C20.2727 23.6455 20.2727 23.6455 20.2727 23.6455C20.2727 23.6455 20.2727 23.6455 20.2728 23.6455C20.2728 23.6455 20.2729 23.6456 20.2729 23.6456C20.273 23.6457 20.2732 23.6458 20.2734 23.6459C20.2737 23.6461 20.2742 23.6464 20.2748 23.6468C20.276 23.6475 20.2777 23.6485 20.2798 23.6499C20.2841 23.6525 20.2904 23.6563 20.2984 23.6612C20.3146 23.671 20.3381 23.685 20.3684 23.7025C20.4289 23.7377 20.5165 23.7871 20.6265 23.8452C20.8461 23.9612 21.1561 24.1123 21.5176 24.2529L21.6625 23.8801ZM15.1711 22.8218C14.7386 22.9426 14.4209 23.0859 14.2217 23.2537C14.1205 23.3389 14.0412 23.4376 13.9993 23.5516C13.9561 23.6693 13.9578 23.7899 13.9981 23.9038C14.074 24.118 14.2781 24.2892 14.5191 24.4238C14.7684 24.563 15.095 24.6841 15.4744 24.7807C16.9872 25.1656 19.4697 25.1924 21.6688 24.2503L21.5113 23.8826C19.403 24.7858 17.0117 24.7591 15.573 24.393C15.2146 24.3018 14.9235 24.1915 14.7141 24.0746C14.4964 23.953 14.401 23.8431 14.3752 23.7703C14.3647 23.7406 14.365 23.7161 14.3748 23.6896C14.3859 23.6593 14.4139 23.6147 14.4793 23.5597C14.6132 23.447 14.8654 23.3225 15.2787 23.2071L15.1711 22.8218ZM15.2164 21.254C14.8653 21.2176 14.7001 21.1504 14.6312 21.0982C14.6011 21.0754 14.5969 21.0613 14.5964 21.0596C14.5956 21.0571 14.5934 21.0487 14.5992 21.0289C14.6129 20.9811 14.6571 20.9183 14.7169 20.8568C14.7442 20.8287 14.7703 20.8054 14.7895 20.7892C14.799 20.7811 14.8066 20.775 14.8116 20.7712C14.814 20.7693 14.8158 20.7679 14.8168 20.7671C14.8173 20.7668 14.8175 20.7666 14.8176 20.7665C14.8177 20.7665 14.8177 20.7665 14.8176 20.7665C14.8176 20.7665 14.8175 20.7666 14.8175 20.7666C14.8174 20.7666 14.8174 20.7667 14.8174 20.7667C14.8173 20.7667 14.8172 20.7668 14.6982 20.606C14.5792 20.4453 14.5792 20.4453 14.5791 20.4454C14.5791 20.4454 14.579 20.4455 14.5789 20.4455C14.5788 20.4456 14.5787 20.4457 14.5785 20.4458C14.5783 20.446 14.5779 20.4463 14.5775 20.4466C14.5767 20.4472 14.5757 20.448 14.5744 20.4489C14.5719 20.4508 14.5686 20.4534 14.5645 20.4566C14.5563 20.4631 14.545 20.4721 14.5316 20.4834C14.5049 20.506 14.4686 20.5383 14.4301 20.578C14.3581 20.6519 14.2566 20.773 14.2148 20.9182C14.1927 20.9949 14.1853 21.0854 14.2146 21.1792C14.2443 21.2739 14.3057 21.3535 14.3898 21.4172C14.5492 21.5378 14.8062 21.6136 15.1752 21.6518L15.2164 21.254ZM21.0365 20.9745C18.512 21.4604 17.0613 21.4444 15.2163 21.254L15.1752 21.6518C17.0551 21.8459 18.5453 21.8613 21.1121 21.3673L21.0365 20.9745ZM22.0453 21.5341C21.7915 21.4447 21.5825 21.3174 21.4364 21.2117C21.3636 21.1591 21.3073 21.1124 21.2698 21.0794C21.2511 21.063 21.2371 21.05 21.2282 21.0415C21.2237 21.0373 21.2205 21.0342 21.2186 21.0323C21.2177 21.0314 21.2171 21.0308 21.2168 21.0305C21.2166 21.0303 21.2166 21.0303 21.2166 21.0303C21.2166 21.0303 21.2166 21.0303 21.2167 21.0304C21.2167 21.0304 21.2167 21.0305 21.2168 21.0305C21.2168 21.0305 21.2168 21.0305 21.2168 21.0305C21.2169 21.0306 21.2169 21.0306 21.0743 21.1709C20.9318 21.3112 20.9318 21.3112 20.9319 21.3113C20.9319 21.3113 20.9319 21.3113 20.932 21.3114C20.932 21.3114 20.9321 21.3115 20.9321 21.3115C20.9323 21.3117 20.9324 21.3118 20.9326 21.312C20.933 21.3124 20.9334 21.3128 20.934 21.3134C20.935 21.3145 20.9365 21.3159 20.9382 21.3176C20.9417 21.3211 20.9466 21.3258 20.9528 21.3317C20.9653 21.3435 20.9831 21.3599 21.0059 21.38C21.0516 21.4201 21.1177 21.4748 21.2019 21.5357C21.3697 21.6572 21.6129 21.8059 21.9124 21.9114L22.0453 21.5341ZM14.6352 20.4162C14.1619 20.5733 13.8174 20.7398 13.6013 20.9167C13.385 21.0938 13.2512 21.3262 13.3438 21.5839C13.4233 21.8054 13.65 21.9661 13.9077 22.0857C14.1774 22.2109 14.5337 22.3151 14.9512 22.3955C16.6187 22.7167 19.4024 22.6846 22.035 21.9147L21.9227 21.5308C19.3486 22.2836 16.6293 22.3114 15.0269 22.0027C14.6269 21.9257 14.3053 21.8293 14.0761 21.7229C13.8349 21.6109 13.7419 21.5089 13.7202 21.4487C13.7117 21.4248 13.6953 21.3567 13.8546 21.2263C14.014 21.0958 14.3033 20.9479 14.7612 20.7958L14.6352 20.4162ZM24.8319 24.797C24.7046 24.9513 24.7045 24.9512 24.7044 24.9511C24.7044 24.9511 24.7043 24.951 24.7042 24.951C24.7041 24.9509 24.704 24.9508 24.7039 24.9507C24.7037 24.9505 24.7035 24.9504 24.7033 24.9502C24.703 24.95 24.7029 24.9499 24.7028 24.9498C24.7028 24.9497 24.7031 24.9501 24.704 24.9508C24.7056 24.9523 24.7088 24.9553 24.713 24.9596C24.7216 24.9684 24.7333 24.9816 24.7446 24.9978C24.7691 25.0328 24.7809 25.066 24.7796 25.0941C24.7787 25.1143 24.7701 25.1665 24.6777 25.2429C24.5809 25.3229 24.4029 25.4196 24.0886 25.5149L24.2046 25.8977C24.5439 25.7948 24.7784 25.6787 24.9326 25.5511C25.0913 25.4198 25.1722 25.2694 25.1792 25.1119C25.1859 24.9622 25.1239 24.8424 25.0726 24.7689C25.0461 24.7309 25.0194 24.7009 24.9991 24.6801C24.9889 24.6696 24.9799 24.6611 24.9731 24.6549C24.9697 24.6518 24.9667 24.6492 24.9644 24.6472C24.9632 24.6462 24.9622 24.6453 24.9613 24.6445C24.9608 24.6442 24.9604 24.6438 24.9601 24.6435C24.9599 24.6434 24.9597 24.6432 24.9596 24.6431C24.9595 24.643 24.9594 24.6429 24.9593 24.6429C24.9592 24.6428 24.9591 24.6427 24.8319 24.797ZM11.0709 26.6631C15.4828 27.3783 19.507 27.2181 22.1492 26.7474C23.4631 26.5133 24.4604 26.1983 24.9899 25.86C25.1241 25.7743 25.2377 25.6813 25.3191 25.5796C25.4009 25.4775 25.4588 25.3552 25.4559 25.2179C25.4499 24.9377 25.2055 24.7462 24.9141 24.6147L24.7496 24.9793C25.0275 25.1047 25.0555 25.2026 25.056 25.2264C25.0563 25.2412 25.0509 25.2746 25.0069 25.3296C24.9624 25.3851 24.8876 25.4507 24.7746 25.5229C24.3154 25.8163 23.3845 26.121 22.0791 26.3536C19.4827 26.8162 15.5038 26.9765 11.1349 26.2683L11.0709 26.6631ZM13.6402 24.5723C13.4832 24.4618 13.2657 24.4209 13.046 24.4124C12.8195 24.4037 12.5591 24.4286 12.2904 24.4765C11.7535 24.5721 11.158 24.7642 10.6905 24.995C10.4574 25.1102 10.2475 25.2392 10.0917 25.3768C9.94333 25.5078 9.80712 25.679 9.80026 25.8818C9.79264 26.107 9.94274 26.2751 10.1489 26.3906C10.3552 26.5062 10.66 26.5965 11.0709 26.6631L11.1349 26.2683C10.7408 26.2043 10.4902 26.1233 10.3444 26.0417C10.1985 25.9599 10.1997 25.9047 10.2 25.8953C10.2011 25.8634 10.2297 25.7885 10.3564 25.6766C10.4757 25.5713 10.6514 25.4605 10.8677 25.3537C11.2992 25.1406 11.8584 24.9597 12.3606 24.8703C12.6115 24.8256 12.8418 24.8049 13.0306 24.8122C13.2262 24.8197 13.3487 24.8563 13.4099 24.8994L13.6402 24.5723ZM12.809 25.0168C13.0402 24.9667 13.2199 24.9467 13.3397 24.939C13.3996 24.9351 13.4446 24.9344 13.4735 24.9345C13.488 24.9346 13.4985 24.9349 13.5048 24.9351C13.508 24.9352 13.5101 24.9353 13.5112 24.9354C13.5117 24.9354 13.512 24.9354 13.512 24.9354C13.512 24.9354 13.512 24.9354 13.5119 24.9354C13.5118 24.9354 13.5117 24.9354 13.5116 24.9354C13.5116 24.9354 13.5115 24.9354 13.5115 24.9354C13.5114 24.9354 13.5114 24.9354 13.5114 24.9354C13.5113 24.9354 13.5113 24.9354 13.5251 24.7359C13.5388 24.5363 13.5388 24.5363 13.5387 24.5363C13.5387 24.5363 13.5387 24.5363 13.5386 24.5363C13.5386 24.5363 13.5385 24.5363 13.5384 24.5363C13.5382 24.5363 13.5381 24.5363 13.5379 24.5363C13.5375 24.5362 13.537 24.5362 13.5365 24.5362C13.5354 24.5361 13.5341 24.536 13.5325 24.5359C13.5293 24.5358 13.525 24.5356 13.5197 24.5354C13.5091 24.535 13.4943 24.5346 13.4754 24.5345C13.4375 24.5343 13.3834 24.5354 13.3141 24.5398C13.1754 24.5487 12.9759 24.5714 12.7244 24.6259L12.809 25.0168ZM11.6963 25.553C11.6112 25.516 11.5858 25.4887 11.5824 25.4841C11.5823 25.4839 11.5836 25.4857 11.5853 25.4896C11.587 25.4937 11.5887 25.499 11.5896 25.5055C11.5916 25.5193 11.5889 25.5295 11.5876 25.533C11.5871 25.5343 11.5957 25.5146 11.6408 25.4775C11.6827 25.443 11.7421 25.4049 11.8174 25.365C12.1231 25.2031 12.5874 25.0646 12.8089 25.0168L12.7245 24.6258C12.4829 24.678 11.9799 24.8263 11.6302 25.0115C11.5416 25.0584 11.4567 25.1109 11.3864 25.1688C11.3193 25.224 11.248 25.2984 11.2126 25.3938C11.1716 25.5043 11.1869 25.6221 11.2609 25.7221C11.3254 25.8092 11.4256 25.8714 11.5366 25.9198L11.6963 25.553ZM24.0886 25.5149C22.8751 25.8825 20.313 26.1278 17.7657 26.1599C16.4961 26.1759 15.2384 26.1388 14.1644 26.0391C13.0836 25.9388 12.2106 25.7768 11.6963 25.553L11.5367 25.9198C12.114 26.171 13.0425 26.3367 14.1274 26.4374C15.2191 26.5388 16.4915 26.576 17.7708 26.5598C20.3214 26.5277 22.9327 26.283 24.2046 25.8977L24.0886 25.5149ZM15.6298 18.1111C15.5836 17.9165 15.5836 17.9165 15.5835 17.9165C15.5835 17.9165 15.5834 17.9165 15.5833 17.9165C15.5832 17.9166 15.583 17.9166 15.5827 17.9167C15.5821 17.9168 15.5814 17.917 15.5803 17.9173C15.5783 17.9177 15.5753 17.9185 15.5715 17.9194C15.5637 17.9213 15.5524 17.924 15.5378 17.9276C15.5086 17.9348 15.4663 17.9453 15.4135 17.9588C15.308 17.9857 15.1603 18.0246 14.9911 18.0724C14.6544 18.1674 14.2263 18.2995 13.8769 18.4444C13.7032 18.5164 13.5401 18.5952 13.4157 18.6785C13.3537 18.7201 13.2941 18.7675 13.2472 18.8214C13.2013 18.8741 13.1543 18.9482 13.1464 19.0412C13.1378 19.1428 13.1786 19.2302 13.24 19.2954C13.2969 19.356 13.3733 19.4004 13.4547 19.4352C13.618 19.5052 13.8598 19.5606 14.1875 19.6044L14.2405 19.2079C13.9226 19.1654 13.7244 19.1156 13.6121 19.0675C13.5557 19.0433 13.5353 19.0255 13.5313 19.0214C13.5304 19.0204 13.5351 19.0251 13.5394 19.0361C13.5441 19.048 13.5461 19.0617 13.545 19.075C13.5429 19.0993 13.5325 19.1028 13.5489 19.0841C13.5641 19.0666 13.5923 19.0417 13.6384 19.0108C13.7304 18.9491 13.8654 18.8822 14.0301 18.8139C14.3574 18.6782 14.7674 18.5512 15.0998 18.4573C15.2651 18.4107 15.4095 18.3727 15.5126 18.3463C15.5641 18.3332 15.6051 18.323 15.6333 18.316C15.6473 18.3126 15.6581 18.31 15.6654 18.3082C15.669 18.3073 15.6717 18.3067 15.6735 18.3063C15.6744 18.306 15.6751 18.3059 15.6755 18.3058C15.6757 18.3057 15.6758 18.3057 15.6759 18.3057C15.676 18.3057 15.676 18.3057 15.676 18.3057C15.676 18.3057 15.676 18.3057 15.6298 18.1111ZM12.2547 19.1094C13.1874 18.6583 14.0325 18.4588 14.6428 18.372C14.9479 18.3286 15.194 18.3134 15.3625 18.309C15.4468 18.3068 15.5116 18.3073 15.5547 18.3083C15.5763 18.3088 15.5924 18.3094 15.6027 18.3099C15.6079 18.3101 15.6117 18.3103 15.6139 18.3105C15.6151 18.3105 15.6158 18.3106 15.6162 18.3106C15.6164 18.3106 15.6165 18.3106 15.6166 18.3106C15.6166 18.3106 15.6165 18.3106 15.6165 18.3106C15.6165 18.3106 15.6164 18.3106 15.6164 18.3106C15.6164 18.3106 15.6163 18.3106 15.6298 18.1111C15.6433 17.9115 15.6432 17.9115 15.6432 17.9115C15.6431 17.9115 15.643 17.9115 15.643 17.9115C15.6428 17.9115 15.6427 17.9115 15.6425 17.9115C15.6421 17.9114 15.6417 17.9114 15.6411 17.9114C15.64 17.9113 15.6385 17.9112 15.6367 17.9111C15.6329 17.9109 15.6277 17.9106 15.6211 17.9103C15.6078 17.9097 15.5886 17.909 15.564 17.9084C15.5147 17.9073 15.4433 17.9068 15.3521 17.9092C15.1698 17.9139 14.9083 17.9302 14.5865 17.976C13.943 18.0675 13.0569 18.2771 12.0805 18.7493L12.2547 19.1094ZM21.7629 19.2573C19.7602 19.7841 16.8071 19.9272 14.6326 19.8005C13.5402 19.7369 12.6721 19.6064 12.2223 19.4349C12.1111 19.3925 12.0384 19.3522 11.9963 19.3185C11.9529 19.2837 11.9657 19.2758 11.9669 19.2983C11.9681 19.3218 11.9535 19.3138 11.9981 19.2708C12.0419 19.2285 12.1223 19.1735 12.2547 19.1094L12.0805 18.7493C11.9307 18.8218 11.8076 18.8987 11.7202 18.9831C11.6336 19.0668 11.5599 19.1804 11.5675 19.3199C11.5749 19.4585 11.6593 19.561 11.7461 19.6306C11.8343 19.7013 11.9504 19.7593 12.0798 19.8086C12.5924 20.0041 13.5155 20.1361 14.6093 20.1998C16.8072 20.3279 19.8063 20.1856 21.8647 19.6441L21.7629 19.2573ZM22.8191 18.9126C22.7403 18.7288 22.7403 18.7288 22.7402 18.7289C22.7402 18.7289 22.7402 18.7289 22.7402 18.7289C22.7402 18.7289 22.7401 18.7289 22.7401 18.7289C22.7399 18.729 22.7398 18.729 22.7396 18.7291C22.7393 18.7293 22.7388 18.7295 22.7381 18.7298C22.7369 18.7303 22.735 18.7311 22.7327 18.7321C22.728 18.7342 22.7212 18.7371 22.7125 18.741C22.695 18.7487 22.6698 18.7599 22.6384 18.7743C22.5756 18.8029 22.4875 18.8441 22.3859 18.8945C22.1842 18.9946 21.9234 19.1339 21.7011 19.2855L21.9265 19.616C22.1265 19.4796 22.3684 19.3498 22.5637 19.2528C22.6607 19.2047 22.7448 19.1654 22.8044 19.1382C22.8343 19.1246 22.8579 19.114 22.874 19.1069C22.882 19.1034 22.8882 19.1007 22.8922 19.0989C22.8943 19.098 22.8958 19.0974 22.8967 19.097C22.8972 19.0968 22.8976 19.0966 22.8978 19.0965C22.8979 19.0965 22.8979 19.0965 22.898 19.0964C22.898 19.0964 22.898 19.0964 22.898 19.0964L22.898 19.0964C22.898 19.0964 22.898 19.0964 22.8191 18.9126ZM19.5201 19.548C20.3533 19.478 21.1867 19.3683 21.811 19.2764C22.1234 19.2304 22.3839 19.1887 22.5664 19.1585C22.6577 19.1435 22.7295 19.1312 22.7785 19.1228C22.8031 19.1185 22.8219 19.1152 22.8347 19.113C22.8411 19.1119 22.8459 19.111 22.8492 19.1104C22.8509 19.1101 22.8521 19.1099 22.853 19.1098C22.8534 19.1097 22.8537 19.1096 22.8539 19.1096C22.8541 19.1096 22.8541 19.1096 22.8542 19.1095C22.8542 19.1095 22.8543 19.1095 22.8543 19.1095C22.8543 19.1095 22.8543 19.1095 22.8191 18.9126C22.7839 18.7158 22.7839 18.7158 22.7839 18.7158C22.7839 18.7158 22.7839 18.7158 22.7839 18.7158C22.7838 18.7158 22.7838 18.7158 22.7837 18.7158C22.7835 18.7158 22.7832 18.7159 22.7828 18.716C22.7821 18.7161 22.7809 18.7163 22.7794 18.7166C22.7763 18.7171 22.7716 18.7179 22.7654 18.719C22.7531 18.7212 22.7346 18.7244 22.7105 18.7286C22.6623 18.7369 22.5914 18.749 22.5011 18.7639C22.3206 18.7938 22.0624 18.835 21.7527 18.8806C21.1329 18.9719 20.3084 19.0803 19.4866 19.1494L19.5201 19.548ZM14.1875 19.6044C15.3006 19.7533 17.4916 19.7181 19.5201 19.548L19.4867 19.1494C17.4639 19.319 15.3087 19.3508 14.2405 19.2079L14.1875 19.6044ZM22.8947 22.2976C24.9701 21.2195 25.6425 20.1042 25.4907 19.2144C25.3412 18.3387 24.4096 17.8381 23.6486 17.9967L23.7302 18.3883C24.3015 18.2693 24.9904 18.6604 25.0964 19.2817C25.2 19.8891 24.7629 20.8764 22.7103 21.9427L22.8947 22.2976ZM22.8601 22.3717C22.8663 22.3658 22.8882 22.3448 22.9118 22.3169C22.9324 22.2927 22.9686 22.2469 22.9898 22.1905L22.6153 22.0498C22.6181 22.0425 22.62 22.0406 22.6174 22.0444C22.6152 22.0477 22.6117 22.0524 22.6068 22.0582C22.5968 22.0699 22.587 22.0794 22.5832 22.083L22.8601 22.3717ZM22.86 22.3718L22.8616 22.3702L22.5817 22.0845L22.5801 22.086L22.86 22.3718ZM23.6364 18.2361C24.8689 17.803 25.879 18.4538 26.0026 19.2771C26.0646 19.6907 25.9172 20.1936 25.409 20.691C24.8981 21.1909 24.0271 21.6785 22.6692 22.0355L22.7709 22.4223C24.169 22.0548 25.1116 21.5416 25.6887 20.9769C26.2684 20.4097 26.4831 19.7842 26.3981 19.2178C26.2276 18.0811 24.9067 17.3657 23.5038 17.8588L23.6364 18.2361ZM23.2176 18.3194C23.3862 18.4269 23.3862 18.427 23.3862 18.427C23.3862 18.427 23.3861 18.4271 23.3861 18.4271C23.3861 18.4272 23.386 18.4273 23.386 18.4273C23.3859 18.4275 23.3858 18.4276 23.3858 18.4277C23.3856 18.4279 23.3855 18.428 23.3854 18.4282C23.3853 18.4284 23.3852 18.4285 23.3853 18.4284C23.3854 18.4282 23.3859 18.4274 23.3869 18.4261C23.3888 18.4233 23.3924 18.4184 23.3976 18.4118C23.408 18.3985 23.4245 18.379 23.4468 18.3573C23.4921 18.313 23.5563 18.2645 23.6368 18.236L23.5034 17.8589C23.3527 17.9122 23.2406 17.9996 23.1675 18.0709C23.1306 18.1069 23.1023 18.1401 23.0828 18.165C23.073 18.1775 23.0653 18.1881 23.0596 18.1961C23.0568 18.2001 23.0545 18.2034 23.0528 18.2061C23.0519 18.2074 23.0511 18.2086 23.0505 18.2095C23.0502 18.21 23.0499 18.2105 23.0496 18.2108C23.0495 18.211 23.0494 18.2112 23.0493 18.2114C23.0492 18.2115 23.0492 18.2116 23.0491 18.2116C23.0491 18.2117 23.0491 18.2117 23.049 18.2118C23.049 18.2118 23.049 18.2119 23.2176 18.3194ZM23.6486 17.9967C23.4803 18.0318 23.3567 18.0649 23.2737 18.0899C23.2323 18.1024 23.201 18.1128 23.1793 18.1204C23.1684 18.1242 23.16 18.1273 23.1539 18.1296C23.1509 18.1307 23.1484 18.1317 23.1466 18.1324C23.1456 18.1328 23.1448 18.1331 23.1442 18.1334C23.1439 18.1335 23.1436 18.1336 23.1433 18.1337C23.1432 18.1338 23.1431 18.1338 23.143 18.1338C23.1429 18.1339 23.1429 18.1339 23.1428 18.1339C23.1428 18.1339 23.1428 18.1339 23.1427 18.1339C23.1427 18.1339 23.1427 18.134 23.2176 18.3194C23.2925 18.5048 23.2925 18.5048 23.2925 18.5049C23.2925 18.5049 23.2924 18.5049 23.2924 18.5049C23.2924 18.5049 23.2923 18.5049 23.2923 18.5049C23.2922 18.505 23.2922 18.505 23.2921 18.505C23.292 18.505 23.2919 18.5051 23.2919 18.5051C23.2918 18.5051 23.2919 18.5051 23.2921 18.505C23.2925 18.5048 23.2935 18.5045 23.2951 18.5039C23.2983 18.5027 23.3038 18.5006 23.3118 18.4978C23.3277 18.4922 23.3532 18.4837 23.389 18.4729C23.4605 18.4514 23.5729 18.4211 23.7302 18.3883L23.6486 17.9967ZM16.0233 28.1309C18.0139 28.2582 20.54 28.2231 22.5919 27.9193C23.6161 27.7676 24.5354 27.5472 25.213 27.2392C25.8773 26.9373 26.3805 26.5172 26.4255 25.9311L26.0267 25.9004C25.9997 26.2516 25.6884 26.5838 25.0475 26.875C24.4199 27.1603 23.5434 27.3741 22.5333 27.5236C20.5164 27.8223 18.0196 27.8577 16.0488 27.7317L16.0233 28.1309ZM12.7258 27.3442C12.7409 27.4205 12.7874 27.4886 12.791 27.4919C12.7922 27.4931 12.7943 27.4949 12.795 27.4956C12.7963 27.4967 12.7973 27.4975 12.7978 27.4979C12.7988 27.4988 12.7998 27.4995 12.8004 27.5001C12.8019 27.5012 12.8034 27.5024 12.8049 27.5036C12.8079 27.5059 12.8114 27.5085 12.8154 27.5114C12.8235 27.5172 12.8338 27.5242 12.8468 27.5323C12.8728 27.5485 12.9094 27.5692 12.9597 27.5931C13.0601 27.6409 13.216 27.7023 13.451 27.7677C13.9204 27.8984 14.7126 28.0466 16.0232 28.1309L16.0489 27.7317C14.756 27.6486 13.993 27.5034 13.5582 27.3824C13.3411 27.322 13.2075 27.268 13.1316 27.2319C13.0937 27.2139 13.0704 27.2004 13.0585 27.1929C13.0525 27.1892 13.0495 27.187 13.0488 27.1866C13.0485 27.1863 13.0488 27.1866 13.0498 27.1873C13.0503 27.1877 13.051 27.1882 13.0519 27.189C13.0524 27.1894 13.0531 27.19 13.054 27.1908C13.0544 27.1911 13.0554 27.1919 13.0566 27.1929C13.0574 27.1936 13.0594 27.1954 13.0607 27.1965C13.0642 27.1999 13.1107 27.268 13.1258 27.3442H12.7258ZM22.915 26.9936C19.5579 27.6256 15.4101 27.5517 12.9584 27.1469L12.8932 27.5416C15.388 27.9535 19.5831 28.0279 22.989 27.3867L22.915 26.9936ZM26.2261 25.9157C26.0398 25.8431 26.0399 25.8428 26.04 25.8425C26.0401 25.8424 26.0402 25.8421 26.0402 25.8419C26.0404 25.8415 26.0406 25.8412 26.0407 25.8408C26.041 25.8401 26.0413 25.8394 26.0416 25.8387C26.0421 25.8375 26.0426 25.8364 26.043 25.8354C26.0438 25.8336 26.0444 25.8325 26.0446 25.8321C26.045 25.8312 26.044 25.8333 26.041 25.8379C26.0349 25.8472 26.0204 25.8674 25.9921 25.8967C25.9355 25.9554 25.8238 26.0505 25.6154 26.167C25.1974 26.4007 24.4019 26.7139 22.915 26.9936L22.989 27.3867C24.4993 27.1026 25.3409 26.7787 25.8106 26.5161C26.0462 26.3844 26.191 26.2666 26.28 26.1745C26.3245 26.1283 26.355 26.0886 26.3758 26.0568C26.3861 26.041 26.394 26.0272 26.4 26.0156C26.403 26.0099 26.4054 26.0047 26.4075 26.0002C26.4085 25.9979 26.4095 25.9957 26.4103 25.9938C26.4107 25.9928 26.4111 25.9918 26.4115 25.9909C26.4116 25.9905 26.4118 25.99 26.412 25.9896C26.4121 25.9894 26.4122 25.9891 26.4122 25.989C26.4124 25.9887 26.4125 25.9884 26.2261 25.9157Z" fill="white"/>
</svg>
