<svg width="56" height="56" viewBox="0 0 56 56" fill="none" xmlns="http://www.w3.org/2000/svg">
<path opacity="0.14" d="M27.5 1.44338C27.8094 1.26474 28.1906 1.26474 28.5 1.44338L50.7487 14.2887C51.0581 14.4673 51.2487 14.7974 51.2487 15.1547V40.8453C51.2487 41.2026 51.0581 41.5327 50.7487 41.7113L28.5 54.5566C28.1906 54.7353 27.8094 54.7353 27.5 54.5566L5.25129 41.7113C4.94189 41.5327 4.75129 41.2026 4.75129 40.8453V15.1547C4.75129 14.7974 4.94189 14.4673 5.25129 14.2887L27.5 1.44338Z" fill="#00A3FF" stroke="#00A3FF" stroke-width="2" stroke-linecap="round" stroke-linejoin="round"/>
<path fill-rule="evenodd" clip-rule="evenodd" d="M21.8311 16.4803C17.6391 18.9724 16.4886 24.2019 17.1933 28.0063C17.6189 30.3377 18.4371 32.5811 19.6137 34.6419C19.8298 35.0429 20.0122 35.388 20.1484 35.6954C20.1009 37.0282 18.5554 40.7387 18.0888 41.0909C17.9328 41.2082 17.8682 41.4105 17.9275 41.5957C17.9861 41.7784 18.1558 41.9033 18.3487 41.9057H29.6247C29.7444 41.9057 29.8592 41.8584 29.9437 41.7744C30.0284 41.6903 30.0759 41.5762 30.0758 41.4573C30.1364 40.7142 30.3614 39.9937 30.7345 39.347C32.0269 39.7933 33.3776 40.0506 34.7444 40.1109C35.045 40.12 35.3453 40.0837 35.635 40.0032C36.9614 39.5724 38.0635 35.1159 38.3248 34.0593C38.3478 33.9661 38.3644 33.8994 38.3739 33.8642C38.4354 33.6374 38.7913 33.5292 39.1513 33.4197C39.4804 33.3196 39.8127 33.2185 39.9265 33.025C40.1776 32.4273 39.7447 31.7791 39.2434 31.0286L39.2433 31.0285C38.7835 30.3407 38.2628 29.5613 38.2439 28.81C38.239 28.1789 38.3299 27.5507 38.5135 26.9466C38.6499 26.4719 38.7412 25.9855 38.7862 25.4938C38.8213 24.7014 38.7326 23.9084 38.5232 23.1429C37.5841 19.3693 34.5977 16.4716 30.5348 15.3918C27.6016 14.6135 24.4787 15.0041 21.8311 16.4803ZM19.2352 41.0092C20.0707 39.5555 21.0432 36.7226 21.0546 35.6505C21.0621 35.5802 21.0524 35.5092 21.0262 35.4434C20.8716 35.0759 20.6576 34.6788 20.4096 34.219C19.274 32.2411 18.4866 30.0852 18.0812 27.8439C17.4311 24.3345 18.4724 19.5224 22.2952 17.25C24.7321 15.8949 27.6051 15.5389 30.3022 16.2578C34.099 17.2669 36.7762 19.8548 37.6484 23.3582C37.8374 24.0318 37.9181 24.7308 37.8875 25.4294C37.8661 25.6968 37.8244 25.9622 37.7628 26.2233L37.5291 27.1701C37.3927 27.7137 37.3301 28.2729 37.3427 28.833C37.3682 29.8423 37.9915 30.7752 38.4923 31.5247L38.4935 31.5264C38.7272 31.8762 39.1604 32.5244 39.0949 32.6798C39.094 32.682 39.0719 32.688 39.0334 32.6984C38.7228 32.7822 37.3427 33.1547 37.3427 34.1995C37.3427 34.8054 36.1067 38.9072 35.3557 39.1513C34.1699 39.5368 28.8587 38.2764 27.5822 36.6163C27.4306 36.4204 27.1481 36.3832 26.9505 36.5333C26.7529 36.6834 26.7147 36.9641 26.8651 37.1609C27.4177 37.8792 28.5688 38.5337 29.8757 39.0428C29.5489 39.6582 29.325 40.3223 29.2127 41.0092H19.2352Z" fill="#00A3FF"/>
<path d="M17.1933 28.0063L17.39 27.9698L17.3901 27.9704L17.1933 28.0063ZM21.8311 16.4803L21.7288 16.3083L21.7337 16.3056L21.8311 16.4803ZM19.6137 34.6419L19.7874 34.5428L19.7897 34.5471L19.6137 34.6419ZM20.1484 35.6954L20.3313 35.6144L20.3499 35.6565L20.3483 35.7025L20.1484 35.6954ZM18.0888 41.0909L18.2092 41.2506L18.209 41.2507L18.0888 41.0909ZM17.9275 41.5957L17.7371 41.6567L17.7371 41.6567L17.9275 41.5957ZM18.3487 41.9057V42.1057L18.3462 42.1056L18.3487 41.9057ZM29.9437 41.7744L30.0847 41.9162L30.0847 41.9162L29.9437 41.7744ZM30.0758 41.4573L29.8758 41.4574L29.8758 41.4492L29.8765 41.4411L30.0758 41.4573ZM30.7345 39.347L30.5613 39.247L30.6438 39.1041L30.7998 39.1579L30.7345 39.347ZM34.7444 40.1109L34.7383 40.3109L34.7356 40.3107L34.7444 40.1109ZM35.635 40.0032L35.6969 40.1936L35.6886 40.1959L35.635 40.0032ZM38.3248 34.0593L38.1306 34.0113H38.1306L38.3248 34.0593ZM38.3739 33.8642L38.1809 33.8118H38.1809L38.3739 33.8642ZM39.1513 33.4197L39.0931 33.2283H39.0931L39.1513 33.4197ZM39.9265 33.025L40.1109 33.1024L40.1057 33.1148L40.0989 33.1264L39.9265 33.025ZM39.2434 31.0286L39.0771 31.1397L39.0771 31.1397L39.2434 31.0286ZM39.2433 31.0285L39.4096 30.9173L39.4097 30.9175L39.2433 31.0285ZM38.2439 28.81L38.044 28.8151L38.0439 28.8116L38.2439 28.81ZM38.5135 26.9466L38.7057 27.0019L38.7049 27.0048L38.5135 26.9466ZM38.7862 25.4938L38.9862 25.5027L38.9853 25.5121L38.7862 25.4938ZM38.5232 23.1429L38.3303 23.1957L38.3291 23.1912L38.5232 23.1429ZM30.5348 15.3918L30.5861 15.1984L30.5861 15.1985L30.5348 15.3918ZM21.0546 35.6505L20.8546 35.6484L20.8547 35.6388L20.8558 35.6293L21.0546 35.6505ZM19.2352 41.0092V41.2092H18.8896L19.0618 40.9096L19.2352 41.0092ZM21.0262 35.4434L21.2106 35.3658L21.2121 35.3696L21.0262 35.4434ZM20.4096 34.219L20.5831 34.1193L20.5856 34.124L20.4096 34.219ZM18.0812 27.8439L18.2779 27.8075L18.278 27.8084L18.0812 27.8439ZM22.2952 17.25L22.193 17.0781L22.198 17.0753L22.2952 17.25ZM30.3022 16.2578L30.2508 16.4511L30.2507 16.451L30.3022 16.2578ZM37.6484 23.3582L37.4557 23.4123L37.4543 23.4065L37.6484 23.3582ZM37.8875 25.4294L38.0875 25.4381L38.0869 25.4453L37.8875 25.4294ZM37.7628 26.2233L37.9575 26.2693L37.957 26.2713L37.7628 26.2233ZM37.5291 27.1701L37.7233 27.2181L37.7231 27.2188L37.5291 27.1701ZM37.3427 28.833L37.1428 28.8381L37.1427 28.8375L37.3427 28.833ZM38.4923 31.5247L38.6586 31.4136L38.6586 31.4136L38.4923 31.5247ZM38.4935 31.5264L38.3272 31.6376L38.3272 31.6375L38.4935 31.5264ZM39.0949 32.6798L38.9099 32.6037L38.9106 32.602L39.0949 32.6798ZM39.0334 32.6984L39.0855 32.8914L39.0855 32.8914L39.0334 32.6984ZM35.3557 39.1513L35.2939 38.9611L35.2939 38.9611L35.3557 39.1513ZM27.5822 36.6163L27.7404 36.4939L27.7408 36.4944L27.5822 36.6163ZM26.9505 36.5333L27.0715 36.6926L27.0715 36.6926L26.9505 36.5333ZM26.8651 37.1609L26.7066 37.2829L26.7062 37.2823L26.8651 37.1609ZM29.8757 39.0428L29.9483 38.8564L30.1577 38.938L30.0523 39.1366L29.8757 39.0428ZM29.2127 41.0092L29.4101 41.0415L29.3826 41.2092H29.2127V41.0092ZM16.9967 28.0427C16.2825 24.1876 17.4406 18.8577 21.7289 16.3084L21.9333 16.6522C17.8375 19.0871 16.6946 24.2162 17.39 27.9698L16.9967 28.0427ZM19.44 34.7411C18.2523 32.6607 17.4262 30.3959 16.9966 28.0422L17.3901 27.9704C17.8116 30.2796 18.622 32.5016 19.7874 34.5428L19.44 34.7411ZM19.9656 35.7764C19.8329 35.4771 19.6541 35.1385 19.4376 34.7368L19.7897 34.5471C20.0054 34.9473 20.1915 35.2989 20.3313 35.6144L19.9656 35.7764ZM17.9683 40.9313C17.9944 40.9116 18.0528 40.8441 18.1402 40.7058C18.2225 40.5754 18.3182 40.4025 18.4223 40.1965C18.6301 39.785 18.8661 39.2523 19.0898 38.6873C19.3135 38.1224 19.5235 37.5285 19.6803 36.9948C19.8384 36.4567 19.9376 35.995 19.9486 35.6883L20.3483 35.7025C20.3355 36.0622 20.2237 36.5641 20.0641 37.1076C19.9031 37.6555 19.6887 38.2612 19.4617 38.8345C19.2348 39.4077 18.9939 39.952 18.7793 40.3769C18.6721 40.5891 18.5701 40.7743 18.4784 40.9194C18.3917 41.0566 18.2998 41.1822 18.2092 41.2506L17.9683 40.9313ZM17.7371 41.6567C17.6517 41.3901 17.7449 41.0993 17.9685 40.9311L18.209 41.2507C18.1208 41.3171 18.0848 41.4309 18.118 41.5347L17.7371 41.6567ZM18.3462 42.1056C18.068 42.1022 17.822 41.922 17.7371 41.6567L18.118 41.5347C18.1501 41.6348 18.2436 41.7044 18.3511 41.7057L18.3462 42.1056ZM29.6247 42.1057H18.3487V41.7057H29.6247V42.1057ZM30.0847 41.9162C29.9625 42.0377 29.797 42.1057 29.6247 42.1057V41.7057C29.6918 41.7057 29.7558 41.6792 29.8027 41.6325L30.0847 41.9162ZM30.2758 41.4572C30.2759 41.6296 30.207 41.7947 30.0847 41.9162L29.8027 41.6325C29.8497 41.5858 29.8758 41.5228 29.8758 41.4574L30.2758 41.4572ZM30.9078 39.4469C30.5494 40.0681 30.3334 40.76 30.2752 41.4736L29.8765 41.4411C29.9395 40.6684 30.1734 39.9193 30.5613 39.247L30.9078 39.4469ZM34.7356 40.3107C33.3496 40.2496 31.9798 39.9886 30.6692 39.536L30.7998 39.1579C32.0739 39.5979 33.4057 39.8517 34.7532 39.9111L34.7356 40.3107ZM35.6886 40.1959C35.3795 40.2818 35.0591 40.3205 34.7383 40.3109L34.7504 39.911C35.031 39.9195 35.3112 39.8856 35.5815 39.8105L35.6886 40.1959ZM38.5189 34.1074C38.3883 34.6355 38.0453 36.0232 37.5672 37.3344C37.3284 37.9894 37.0532 38.6331 36.7501 39.1435C36.5985 39.3987 36.4368 39.6259 36.2654 39.8055C36.0949 39.9842 35.9055 40.1257 35.6968 40.1935L35.5732 39.813C35.6961 39.7731 35.8313 39.6811 35.976 39.5294C36.1197 39.3788 36.2638 39.1788 36.4062 38.9392C36.6909 38.4598 36.9562 37.8425 37.1914 37.1974C37.6613 35.9086 38 34.5397 38.1306 34.0113L38.5189 34.1074ZM38.5669 33.9165C38.5581 33.9489 38.5424 34.0127 38.5189 34.1074L38.1306 34.0113C38.1533 33.9195 38.1706 33.8498 38.1809 33.8118L38.5669 33.9165ZM39.2095 33.611C39.025 33.6671 38.8628 33.717 38.7383 33.7777C38.6071 33.8417 38.5737 33.8916 38.5669 33.9165L38.1809 33.8118C38.2356 33.61 38.4109 33.4924 38.563 33.4182C38.7219 33.3407 38.9176 33.2817 39.0931 33.2283L39.2095 33.611ZM40.0989 33.1264C40.0091 33.279 39.8487 33.374 39.7013 33.4399C39.5492 33.508 39.3709 33.5619 39.2095 33.611L39.0931 33.2283C39.2608 33.1773 39.4132 33.1307 39.5379 33.0748C39.6675 33.0168 39.7301 32.9645 39.7541 32.9236L40.0989 33.1264ZM39.4097 30.9176C39.6572 31.288 39.9029 31.6546 40.0514 32.0063C40.2016 32.3623 40.2656 32.7341 40.1109 33.1024L39.7421 32.9476C39.8384 32.7182 39.8116 32.467 39.6828 32.1619C39.5523 31.8525 39.331 31.5198 39.0771 31.1397L39.4097 30.9176ZM39.4097 30.9175L39.4098 30.9176L39.0771 31.1397L39.077 31.1395L39.4097 30.9175ZM38.4439 28.805C38.4522 29.1381 38.5728 29.49 38.7567 29.8526C38.9403 30.2148 39.1784 30.5716 39.4096 30.9173L39.0771 31.1397C38.8484 30.7976 38.5963 30.4208 38.3999 30.0335C38.2038 29.6467 38.0545 29.2332 38.044 28.8151L38.4439 28.805ZM38.7049 27.0048C38.5272 27.5896 38.4392 28.1976 38.4439 28.8085L38.0439 28.8116C38.0389 28.1603 38.1327 27.5119 38.3221 26.8885L38.7049 27.0048ZM38.9853 25.5121C38.9392 26.0162 38.8456 26.5151 38.7057 27.0018L38.3213 26.8914C38.4542 26.4288 38.5432 25.9547 38.587 25.4756L38.9853 25.5121ZM38.7161 23.0902C38.931 23.8756 39.0221 24.6895 38.986 25.5027L38.5864 25.485C38.6206 24.7133 38.5342 23.9411 38.3303 23.1957L38.7161 23.0902ZM30.5861 15.1985C34.7125 16.2952 37.7589 19.2435 38.7173 23.0946L38.3291 23.1912C37.4093 19.4951 34.4829 16.648 30.4834 15.585L30.5861 15.1985ZM21.7337 16.3056C24.4266 14.8042 27.6029 14.4069 30.5861 15.1984L30.4835 15.5851C27.6004 14.8201 24.5308 15.2041 21.9285 16.655L21.7337 16.3056ZM21.2546 35.6526C21.2485 36.2242 20.992 37.2279 20.6432 38.2513C20.292 39.2819 19.8352 40.3667 19.4087 41.1089L19.0618 40.9096C19.4708 40.198 19.9179 39.1395 20.2646 38.1222C20.6138 37.0977 20.8493 36.1489 20.8546 35.6484L21.2546 35.6526ZM21.2121 35.3696C21.2502 35.4654 21.2645 35.569 21.2535 35.6717L20.8558 35.6293C20.8598 35.5914 20.8546 35.553 20.8404 35.5172L21.2121 35.3696ZM20.5856 34.124C20.8323 34.5814 21.0515 34.9877 21.2106 35.3659L20.8419 35.521C20.6918 35.1642 20.4829 34.7762 20.2335 34.3139L20.5856 34.124ZM18.278 27.8084C18.6793 30.027 19.4589 32.1614 20.583 34.1194L20.2361 34.3185C19.0892 32.3209 18.2939 30.1433 17.8844 27.8795L18.278 27.8084ZM22.3974 17.422C18.6717 19.6365 17.6369 24.3473 18.2779 27.8075L17.8846 27.8804C17.2253 24.3216 18.273 19.4082 22.193 17.0781L22.3974 17.422ZM30.2507 16.451C27.6036 15.7454 24.784 16.0949 22.3924 17.4248L22.198 17.0753C24.6803 15.6949 27.6065 15.3323 30.3537 16.0645L30.2507 16.451ZM37.4543 23.4065C36.6016 19.9812 33.9848 17.4435 30.2508 16.4511L30.3535 16.0645C34.2132 17.0903 36.9509 19.7285 37.8424 23.3099L37.4543 23.4065ZM37.6877 25.4206C37.7174 24.7432 37.6391 24.0654 37.4558 23.4123L37.8409 23.3042C38.0357 23.9981 38.1188 24.7183 38.0873 25.4381L37.6877 25.4206ZM37.5681 26.1774C37.6274 25.9261 37.6676 25.6707 37.6882 25.4134L38.0869 25.4453C38.0647 25.7228 38.0214 25.9983 37.9574 26.2693L37.5681 26.1774ZM37.3349 27.1222L37.5686 26.1754L37.957 26.2713L37.7233 27.2181L37.3349 27.1222ZM37.1427 28.8375C37.1297 28.2595 37.1944 27.6824 37.3351 27.1215L37.7231 27.2188C37.5911 27.745 37.5304 28.2863 37.5426 28.8285L37.1427 28.8375ZM38.326 31.6358C37.8327 30.8975 37.17 29.9156 37.1428 28.8381L37.5426 28.8279C37.5664 29.769 38.1503 30.6529 38.6586 31.4136L38.326 31.6358ZM38.3272 31.6375L38.326 31.6358L38.6586 31.4136L38.6598 31.4154L38.3272 31.6375ZM38.9106 32.602C38.8961 32.6365 38.9044 32.6563 38.9007 32.6356C38.8979 32.6206 38.8906 32.5949 38.8756 32.5571C38.8458 32.4822 38.796 32.3853 38.733 32.2756C38.6076 32.0573 38.4448 31.8136 38.3272 31.6376L38.6598 31.4153C38.7759 31.5891 38.9466 31.8443 39.0799 32.0764C39.1462 32.1919 39.207 32.308 39.2473 32.4093C39.2673 32.4596 39.2849 32.5128 39.2942 32.5643C39.3026 32.6102 39.3101 32.6841 39.2792 32.7575L38.9106 32.602ZM38.9813 32.5053C39.0015 32.4998 39.0141 32.4964 39.0219 32.4941C39.0263 32.4928 39.0249 32.4931 39.0209 32.4946C39.0196 32.4951 39.0116 32.498 39.0015 32.5032C38.9966 32.5057 38.9857 32.5116 38.973 32.5213C38.9665 32.5263 38.9568 32.5344 38.9464 32.5458C38.9365 32.5568 38.9213 32.576 38.9099 32.6037L39.2799 32.7558C39.2591 32.8063 39.2239 32.8331 39.2159 32.8391C39.2028 32.8491 39.1913 32.8554 39.1857 32.8583C39.174 32.8644 39.1638 32.8682 39.1597 32.8697C39.1502 32.8733 39.1406 32.8761 39.1346 32.8779C39.1215 32.8817 39.1037 32.8865 39.0855 32.8914L38.9813 32.5053ZM37.1427 34.1995C37.1427 33.5745 37.559 33.1671 37.9674 32.9178C38.3779 32.6674 38.8252 32.5474 38.9813 32.5053L39.0855 32.8914C38.931 32.9332 38.533 33.0413 38.1758 33.2593C37.8165 33.4785 37.5427 33.7798 37.5427 34.1995H37.1427ZM35.2939 38.9611C35.3272 38.9502 35.3974 38.9016 35.4985 38.771C35.5938 38.6477 35.6973 38.4768 35.8053 38.2679C36.0209 37.851 36.2424 37.306 36.4424 36.744C36.6421 36.1831 36.8185 35.611 36.9447 35.1425C37.0079 34.9082 37.058 34.7013 37.0923 34.5358C37.1276 34.3649 37.1427 34.2526 37.1427 34.1995H37.5427C37.5427 34.2979 37.5192 34.4464 37.484 34.6167C37.4477 34.7924 37.3954 35.0073 37.3309 35.2466C37.202 35.7252 37.0224 36.3074 36.8192 36.8782C36.6164 37.4479 36.388 38.0119 36.1606 38.4517C36.0472 38.6711 35.931 38.8655 35.8149 39.0156C35.7046 39.1583 35.5719 39.2913 35.4175 39.3415L35.2939 38.9611ZM27.7408 36.4944C28.0317 36.8727 28.5697 37.2463 29.2575 37.5878C29.9401 37.9267 30.749 38.2239 31.5587 38.4588C32.3682 38.6936 33.1732 38.8646 33.8464 38.953C34.1831 38.9972 34.4839 39.0203 34.7342 39.0211C34.9882 39.0219 35.1758 38.9994 35.2939 38.9611L35.4175 39.3415C35.2391 39.3995 35.0014 39.4219 34.733 39.4211C34.4608 39.4203 34.1422 39.3952 33.7943 39.3495C33.0983 39.2582 32.2733 39.0826 31.4473 38.8429C30.6214 38.6034 29.789 38.2983 29.0796 37.9461C28.3755 37.5964 27.771 37.1899 27.4237 36.7382L27.7408 36.4944ZM26.8296 36.3741C27.1143 36.1577 27.5215 36.211 27.7404 36.4939L27.424 36.7387C27.3398 36.6298 27.1819 36.6087 27.0715 36.6926L26.8296 36.3741ZM26.7062 37.2823C26.4885 36.9973 26.544 36.5909 26.8296 36.374L27.0715 36.6926C26.9618 36.7759 26.941 36.9308 27.024 37.0395L26.7062 37.2823ZM29.8031 39.2291C28.4912 38.7181 27.2948 38.0474 26.7066 37.2829L27.0236 37.039C27.5406 37.711 28.6465 38.3493 29.9483 38.8564L29.8031 39.2291ZM29.0153 40.977C29.1312 40.2686 29.3621 39.5836 29.699 38.949L30.0523 39.1366C29.7358 39.7328 29.5189 40.3761 29.4101 41.0415L29.0153 40.977ZM19.2352 40.8092H29.2127V41.2092H19.2352V40.8092Z" fill="#00A3FF"/>
<path fill-rule="evenodd" clip-rule="evenodd" d="M20.5136 28.9221C20.4498 28.233 20.9207 27.6087 21.6001 27.482L22.4542 26.2962C22.4018 26.1995 22.3616 26.0966 22.3347 25.9898L21.5075 25.6586C21.1255 26.0941 20.5068 26.2335 19.9754 26.0036C19.4441 25.7737 19.1212 25.227 19.1758 24.6499C19.2305 24.0727 19.6504 23.5967 20.2155 23.471L20.8856 22.1323C20.4155 21.6526 20.3749 20.8977 20.7909 20.3702C21.2068 19.8427 21.9494 19.7074 22.5242 20.0542L23.2714 19.4329C23.2149 19.2849 23.1853 19.1279 23.184 18.9694C23.1828 18.4221 23.5148 17.9292 24.0219 17.7254C24.5291 17.5216 25.1091 17.6479 25.4859 18.0443L26.8082 17.7132C26.9666 17.1387 27.4868 16.7395 28.0818 16.7359C28.6769 16.7323 29.2019 17.1251 29.3672 17.6976L31.1344 18.0516C31.5953 17.5537 32.3561 17.4822 32.9015 17.8854C33.4469 18.2886 33.6029 19.0379 33.2637 19.6258L34.1297 20.7808C34.7502 20.8931 35.2074 21.4252 35.2259 22.0565C35.2443 22.6878 34.8189 23.2458 34.206 23.3944L33.49 25.1648C33.8829 25.551 33.9988 26.1391 33.7821 26.646C33.5654 27.1529 33.0604 27.4747 32.5103 27.4565C31.9601 27.4383 31.4773 27.0838 31.2945 26.5637H28.9C28.7001 27.1797 28.0762 27.5526 27.4401 27.4365L25.9594 29.6924C26.3392 30.1142 26.4114 30.7304 26.1394 31.2288C25.8674 31.7273 25.3106 31.9991 24.751 31.9066C24.1914 31.8141 23.7513 31.3775 23.6536 30.8179L22.5483 29.9331C22.338 30.0659 22.0946 30.1368 21.846 30.1376C21.1549 30.1381 20.5773 29.6112 20.5136 28.9221ZM20.507 24.3297C20.2839 24.3292 20.0948 24.4939 20.0642 24.7152C20.0337 24.9365 20.1711 25.1464 20.3858 25.2066C20.6006 25.2668 20.8268 25.1588 20.9154 24.9538C20.9162 24.9518 20.9163 24.9497 20.9165 24.9477L20.9168 24.9451L20.9171 24.9432L20.9177 24.9414L20.9205 24.937C20.9413 24.886 20.9523 24.8315 20.953 24.7764C20.9527 24.5298 20.7532 24.33 20.507 24.3297ZM21.8462 20.7559C22.0576 20.7557 22.2401 20.9044 22.2829 21.1118C22.3258 21.3192 22.2172 21.5281 22.0229 21.6119C22.0219 21.6123 22.0208 21.6126 22.0197 21.6127L22.0169 21.613C22.0149 21.6132 22.0128 21.6134 22.0109 21.6142L22.007 21.6167C21.9559 21.6375 21.9014 21.6486 21.8462 21.6493C21.5999 21.6493 21.4002 21.4493 21.4002 21.2026C21.4002 20.9558 21.5999 20.7559 21.8462 20.7559ZM22.7269 22.2039L23.5511 24.2679L24.996 23.1103C24.8 22.9428 24.6568 22.7219 24.5836 22.4745L22.8164 22.1205C22.791 22.1475 22.7634 22.1717 22.7356 22.1962L22.7269 22.2039ZM23.6907 26.1124C23.4699 26.1429 23.2607 26.0054 23.2006 25.7906C23.1406 25.5757 23.2482 25.3494 23.4526 25.2606C23.4545 25.2599 23.4565 25.2597 23.4585 25.2595C23.4606 25.2593 23.4628 25.2591 23.4649 25.2582L23.4687 25.2557C23.5198 25.2349 23.5743 25.2238 23.6295 25.2231C23.8757 25.2234 24.0752 25.4232 24.0755 25.6698C24.0757 25.893 23.9113 26.082 23.6907 26.1124ZM24.5212 18.5221C24.2748 18.5221 24.0752 18.7221 24.0752 18.9688C24.0752 19.2155 24.2749 19.4155 24.5212 19.4155C24.7674 19.4155 24.9672 19.2155 24.9672 18.9688C24.9669 18.7222 24.7674 18.5224 24.5212 18.5221ZM25.8506 18.8734L26.8694 18.6183C26.9625 18.8251 27.1065 19.0049 27.2878 19.1411L25.6548 20.7766C25.1987 20.847 24.811 21.1478 24.6288 21.5725L23.1762 21.2815C23.1769 21.27 23.1785 21.2587 23.18 21.2474L23.18 21.2474C23.1821 21.2326 23.1842 21.2179 23.1842 21.2026C23.1829 21.044 23.1533 20.8871 23.0967 20.739L23.844 20.1177C24.0486 20.2417 24.283 20.3078 24.5222 20.3091C25.2609 20.3083 25.8595 19.7087 25.8603 18.9689C25.8603 18.9494 25.8577 18.9307 25.8551 18.9119C25.8533 18.8991 25.8516 18.8864 25.8506 18.8734ZM25.4143 22.096C25.4143 22.3427 25.614 22.5427 25.8603 22.5427C26.1066 22.5424 26.3061 22.3426 26.3063 22.096C26.3063 21.8493 26.1067 21.6493 25.8603 21.6493C25.614 21.6493 25.4143 21.8493 25.4143 22.096ZM27.6435 18.0755C27.6435 17.8288 27.8432 17.6288 28.0895 17.6288C28.3357 17.629 28.5353 17.8289 28.5355 18.0755C28.5355 18.3222 28.3358 18.5222 28.0895 18.5222C27.8432 18.5222 27.6435 18.3222 27.6435 18.0755ZM28.0021 19.6897L26.663 21.0308C26.8712 21.1883 27.0288 21.4034 27.1162 21.6495H28.1727C28.278 21.3538 28.4838 21.1045 28.7542 20.9454L28.0021 19.6897ZM29.3209 18.5992L30.7736 18.8902C30.7729 18.9017 30.7713 18.913 30.7697 18.9243L30.7697 18.9243V18.9243V18.9243V18.9243V18.9243V18.9243V18.9243V18.9243V18.9243V18.9243V18.9243V18.9243V18.9243V18.9243V18.9243C30.7677 18.9391 30.7656 18.9538 30.7656 18.9691C30.7663 19.2205 30.8383 19.4665 30.9731 19.6786L29.5735 20.5781L28.7639 19.2266C29.0117 19.0824 29.2069 18.8626 29.3209 18.5992ZM28.9827 22.096C28.9827 22.3427 29.1823 22.5427 29.4287 22.5427C29.6749 22.5424 29.8745 22.3426 29.8747 22.096C29.8747 21.8493 29.675 21.6493 29.4287 21.6493C29.1823 21.6493 28.9827 21.8493 28.9827 22.096ZM31.6576 18.9688C31.6576 18.7221 31.8573 18.5221 32.1036 18.5221C32.3499 18.5224 32.5494 18.7222 32.5496 18.9688C32.5496 19.2155 32.35 19.4155 32.1036 19.4155C31.8573 19.4155 31.6576 19.2155 31.6576 18.9688ZM32.59 20.2147C32.3183 20.327 32.0157 20.3398 31.7355 20.251L30.3584 21.136C30.505 21.2798 30.6165 21.4555 30.6843 21.6495H32.6328C32.7301 21.373 32.9153 21.136 33.1599 20.9749L32.59 20.2147ZM34.3346 22.096C34.3346 22.3427 34.135 22.5427 33.8886 22.5427C33.6423 22.5427 33.4426 22.3427 33.4426 22.096C33.4426 21.8493 33.6423 21.6493 33.8886 21.6493C34.1349 21.6495 34.3344 21.8494 34.3346 22.096ZM32.5495 26.5632C32.7958 26.5632 32.9955 26.3632 32.9955 26.1165C32.9955 25.8698 32.7958 25.6698 32.5495 25.6698C32.3031 25.6698 32.1035 25.8698 32.1035 26.1165C32.1037 26.3631 32.3032 26.5629 32.5495 26.5632ZM32.5503 24.7762C32.4652 24.7767 32.3802 24.7852 32.2967 24.8019L30.2813 23.1197C30.4646 22.9669 30.6037 22.7676 30.684 22.5426H32.6325C32.7476 22.8653 32.9818 23.1315 33.287 23.2864L32.6793 24.7893C32.6645 24.7878 32.6499 24.7858 32.6353 24.7838L32.6353 24.7838C32.6073 24.78 32.5793 24.7762 32.5503 24.7762ZM28.9006 25.6698H31.2951C31.3427 25.536 31.4114 25.4106 31.4986 25.2986L29.3082 23.4703L28.5622 25.146C28.7147 25.2914 28.8306 25.4709 28.9006 25.6698ZM27.1152 22.5426H28.1717C28.2417 22.7415 28.3576 22.921 28.51 23.0665L27.7444 24.7864C27.7308 24.7854 27.7175 24.7836 27.7042 24.7817C27.6842 24.779 27.6642 24.7762 27.6434 24.7762C27.5823 24.7782 27.5214 24.7843 27.4611 24.7947L26.5338 23.2468C26.8041 23.0876 27.0099 22.8384 27.1152 22.5426ZM27.6437 26.5632C27.89 26.5632 28.0897 26.3632 28.0897 26.1165C28.0897 25.8698 27.8899 25.6698 27.6437 25.6698C27.3973 25.6698 27.1977 25.8698 27.1977 26.1165C27.1979 26.3631 27.3974 26.5629 27.6437 26.5632ZM24.4942 24.6557L25.7397 23.6576L26.6674 25.2064C26.5606 25.3195 26.4742 25.4503 26.4122 25.593L24.9066 25.2914C24.8334 25.044 24.6901 24.8232 24.4942 24.6557ZM24.9687 31.0304C25.215 31.0304 25.4147 30.8304 25.4147 30.5837C25.4147 30.3369 25.215 30.137 24.9687 30.137C24.7224 30.137 24.5227 30.3369 24.5227 30.5837C24.5229 30.8303 24.7225 31.0302 24.9687 31.0304ZM23.104 29.2341C23.1549 29.0938 23.1817 28.9459 23.1833 28.7967C23.1825 28.3395 22.9487 27.9144 22.5633 27.6696L23.1135 26.9057C23.7925 27.1908 24.5737 26.8722 24.8607 26.1931L26.3664 26.4947C26.4222 26.6851 26.5199 26.8605 26.6522 27.0082L25.1715 29.264C24.6578 29.1701 24.1385 29.3965 23.8569 29.8369L23.104 29.2341ZM22.7499 24.6685L21.8989 22.5374C21.8907 22.5377 21.8828 22.5389 21.8749 22.54C21.8654 22.5414 21.856 22.5427 21.8462 22.5427C21.7925 22.5406 21.7389 22.5352 21.6858 22.5265L21.1458 23.6055C21.5757 23.8378 21.8445 24.287 21.8462 24.7763C21.8462 24.7861 21.8449 24.7955 21.8435 24.8049L21.8435 24.8049C21.8424 24.8129 21.8412 24.8209 21.8409 24.8292L22.4406 25.0694C22.5172 24.9173 22.6222 24.7812 22.7499 24.6685ZM22.2922 28.7969C22.2922 29.0437 22.0925 29.2436 21.8462 29.2436C21.5999 29.2436 21.4002 29.0437 21.4002 28.7969C21.4002 28.5502 21.5999 28.3502 21.8462 28.3502C22.0924 28.3504 22.2919 28.5503 22.2922 28.7969Z" fill="#00A3FF"/>
</svg>
