<svg width="36" height="36" viewBox="0 0 36 36" fill="none" xmlns="http://www.w3.org/2000/svg">
<path fill-rule="evenodd" clip-rule="evenodd" d="M18 36C8.05887 36 0 27.9411 0 18C0 8.05887 8.05887 0 18 0C27.9411 0 36 8.05887 36 18C36 27.9411 27.9411 36 18 36Z" fill="#0556F3"/>
<path d="M27.6002 12.5C27.5002 12.3 27.4002 12.1 27.2002 12L18.5002 6.99999C18.4002 6.89999 18.2002 6.89999 17.9002 6.89999C17.7002 6.89999 17.5002 6.99999 17.3002 6.99999L8.7002 12C8.4002 12.2 8.2002 12.6 8.2002 13V23C8.2002 23.2 8.2002 23.4 8.4002 23.6C8.5002 23.7 8.6002 23.9 8.7002 23.9L17.4002 28.9C17.5002 29 17.7002 29 18.0002 29C18.2002 29 18.4002 28.9 18.6002 28.9L27.2002 23.9C27.5002 23.7 27.7002 23.3 27.7002 22.9V13C27.7002 12.8 27.7002 12.7 27.6002 12.5ZM18.0002 25.1C14.1002 25.1 10.9002 21.9 10.9002 18C10.9002 14.1 14.1002 10.9 18.0002 10.9C20.6002 10.9 22.9002 12.4 24.2002 14.5L21.9002 15.8C21.1002 14.5 19.7002 13.6 18.1002 13.6C15.7002 13.6 13.7002 15.6 13.7002 18C13.7002 20.4 15.7002 22.4 18.1002 22.4C19.7002 22.4 21.2002 21.5 21.9002 20.2L24.2002 21.6C22.9002 23.7 20.6002 25.1 18.0002 25.1ZM27.2002 17.6H26.6002L26.4002 18.3H27.1002V19.2H26.2002L26.0002 20.3H25.1002L25.3002 19.2H24.6002L24.4002 20.3H23.5002L23.7002 19.2H23.3002V18.3H24.0002L24.2002 17.6H23.4002V16.7H24.4002L24.6002 15.6H25.5002L25.3002 16.7H26.0002L26.2002 15.6H27.0002L26.8002 16.7H27.2002V17.6ZM24.9002 18.4H25.6002L25.8002 17.7H25.1002L24.9002 18.4Z" fill="white"/>
</svg>
